<?xml version='1.0' encoding='UTF-8' standalone='no'?>
<svg xmlns:xlink="http://www.w3.org/1999/xlink" xmlns="http://www.w3.org/2000/svg" width="1278pt" height="454pt" viewBox="0 0 1278 454">
 <title>Figure 4</title>
 <desc>
Creator: GL2PS 1.4.2, (C) 1999-2020 C. Geuzaine
For: Octave
CreationDate: Mon Jul  3 21:17:35 2023
</desc>
 <defs/>
 <polygon points="0,0 1278,0 1278,454 0,454" fill="#ffffff"/>
 <g>
  <polygon points="0,454 1278,454 1278,0 0,0" shape-rendering="crispEdges" fill="#ffffff"/>
  <clipPath id="cp001278454">
   <polygon points="0,454 1278,454 1278,0 0,0"/>
  </clipPath>
  <g clip-path="url(#cp001278454)">
   <polygon points="166.237,366.471 1157.27,366.471 1157.27,38 166.237,38" shape-rendering="crispEdges" fill="#ffffff"/>
   <polyline stroke="#262626" stroke-dasharray="16,0" points="166.237,366.471 166.237,38" stroke-linejoin="miter" stroke-linecap="butt" fill="none" stroke-opacity="0.15" stroke-width="0.5"/>
   <polyline stroke="#262626" stroke-dasharray="16,0" points="364.444,366.471 364.444,38" stroke-linejoin="miter" stroke-linecap="butt" fill="none" stroke-opacity="0.15" stroke-width="0.5"/>
   <polyline stroke="#262626" stroke-dasharray="16,0" points="562.65,366.471 562.65,38" stroke-linejoin="miter" stroke-linecap="butt" fill="none" stroke-opacity="0.15" stroke-width="0.5"/>
   <polyline stroke="#262626" stroke-dasharray="16,0" points="760.856,366.471 760.856,38" stroke-linejoin="miter" stroke-linecap="butt" fill="none" stroke-opacity="0.15" stroke-width="0.5"/>
   <polyline stroke="#262626" stroke-dasharray="16,0" points="959.062,366.471 959.062,38" stroke-linejoin="miter" stroke-linecap="butt" fill="none" stroke-opacity="0.15" stroke-width="0.5"/>
   <polyline stroke="#262626" stroke-dasharray="16,0" points="1157.27,366.471 1157.27,38" stroke-linejoin="miter" stroke-linecap="butt" fill="none" stroke-opacity="0.15" stroke-width="0.5"/>
   <polyline stroke="#262626" points="166.237,366.471 166.237,356.546" stroke-linejoin="miter" stroke-linecap="butt" fill="none" stroke-width="0.5"/>
   <polyline stroke="#262626" points="166.237,38 166.237,47.9245" stroke-linejoin="miter" stroke-linecap="butt" fill="none" stroke-width="0.5"/>
   <polyline stroke="#262626" points="364.444,366.471 364.444,356.546" stroke-linejoin="miter" stroke-linecap="butt" fill="none" stroke-width="0.5"/>
   <polyline stroke="#262626" points="364.444,38 364.444,47.9245" stroke-linejoin="miter" stroke-linecap="butt" fill="none" stroke-width="0.5"/>
   <polyline stroke="#262626" points="562.65,366.471 562.65,356.546" stroke-linejoin="miter" stroke-linecap="butt" fill="none" stroke-width="0.5"/>
   <polyline stroke="#262626" points="562.65,38 562.65,47.9245" stroke-linejoin="miter" stroke-linecap="butt" fill="none" stroke-width="0.5"/>
   <polyline stroke="#262626" points="760.856,366.471 760.856,356.546" stroke-linejoin="miter" stroke-linecap="butt" fill="none" stroke-width="0.5"/>
   <polyline stroke="#262626" points="760.856,38 760.856,47.9245" stroke-linejoin="miter" stroke-linecap="butt" fill="none" stroke-width="0.5"/>
   <polyline stroke="#262626" points="959.062,366.471 959.062,356.546" stroke-linejoin="miter" stroke-linecap="butt" fill="none" stroke-width="0.5"/>
   <polyline stroke="#262626" points="959.062,38 959.062,47.9245" stroke-linejoin="miter" stroke-linecap="butt" fill="none" stroke-width="0.5"/>
   <polyline stroke="#262626" points="1157.27,366.471 1157.27,356.546" stroke-linejoin="miter" stroke-linecap="butt" fill="none" stroke-width="0.5"/>
   <polyline stroke="#262626" points="1157.27,38 1157.27,47.9245" stroke-linejoin="miter" stroke-linecap="butt" fill="none" stroke-width="0.5"/>
   <g font-weight="normal" font-size="32" font-family="FreeSans" xml:space="preserve" transform="translate(157.237,414.505) rotate(-0,9,-24)" font-style="normal">
    <text x="0 " y="-0" fill="rgb(38,38,38)">0</text>
   </g>
   <g font-weight="normal" font-size="32" font-family="FreeSans" xml:space="preserve" transform="translate(337.444,414.505) rotate(-0,27,-24)" font-style="normal">
    <text x="0 18 36 " y="-0" fill="rgb(38,38,38)">200</text>
   </g>
   <g font-weight="normal" font-size="32" font-family="FreeSans" xml:space="preserve" transform="translate(535.65,414.505) rotate(-0,27,-24)" font-style="normal">
    <text x="0 18 36 " y="-0" fill="rgb(38,38,38)">400</text>
   </g>
   <g font-weight="normal" font-size="32" font-family="FreeSans" xml:space="preserve" transform="translate(733.856,414.505) rotate(-0,27,-24)" font-style="normal">
    <text x="0 18 36 " y="-0" fill="rgb(38,38,38)">600</text>
   </g>
   <g font-weight="normal" font-size="32" font-family="FreeSans" xml:space="preserve" transform="translate(932.062,414.505) rotate(-0,27,-24)" font-style="normal">
    <text x="0 18 36 " y="-0" fill="rgb(38,38,38)">800</text>
   </g>
   <g font-weight="normal" font-size="32" font-family="FreeSans" xml:space="preserve" transform="translate(1121.27,414.505) rotate(-0,36,-24)" font-style="normal">
    <text x="0 18 36 54 " y="-0" fill="rgb(38,38,38)">1000</text>
   </g>
   <polyline stroke="#262626" stroke-dasharray="16,0" points="166.237,366.471 1157.27,366.471" stroke-linejoin="miter" stroke-linecap="butt" fill="none" stroke-opacity="0.15" stroke-width="0.5"/>
   <polyline stroke="#262626" stroke-dasharray="16,0" points="166.237,311.726 1157.27,311.726" stroke-linejoin="miter" stroke-linecap="butt" fill="none" stroke-opacity="0.15" stroke-width="0.5"/>
   <polyline stroke="#262626" stroke-dasharray="16,0" points="166.237,256.981 1157.27,256.981" stroke-linejoin="miter" stroke-linecap="butt" fill="none" stroke-opacity="0.15" stroke-width="0.5"/>
   <polyline stroke="#262626" stroke-dasharray="16,0" points="166.237,202.235 1157.27,202.235" stroke-linejoin="miter" stroke-linecap="butt" fill="none" stroke-opacity="0.15" stroke-width="0.5"/>
   <polyline stroke="#262626" stroke-dasharray="16,0" points="166.237,147.49 1157.27,147.49" stroke-linejoin="miter" stroke-linecap="butt" fill="none" stroke-opacity="0.15" stroke-width="0.5"/>
   <polyline stroke="#262626" stroke-dasharray="16,0" points="166.237,92.7451 1157.27,92.7451" stroke-linejoin="miter" stroke-linecap="butt" fill="none" stroke-opacity="0.15" stroke-width="0.5"/>
   <polyline stroke="#262626" stroke-dasharray="16,0" points="166.237,38 1157.27,38" stroke-linejoin="miter" stroke-linecap="butt" fill="none" stroke-opacity="0.15" stroke-width="0.5"/>
   <polyline stroke="#262626" points="166.237,366.471 176.148,366.471" stroke-linejoin="miter" stroke-linecap="butt" fill="none" stroke-width="0.5"/>
   <polyline stroke="#262626" points="1157.27,366.471 1147.36,366.471" stroke-linejoin="miter" stroke-linecap="butt" fill="none" stroke-width="0.5"/>
   <polyline stroke="#262626" points="166.237,311.726 176.148,311.726" stroke-linejoin="miter" stroke-linecap="butt" fill="none" stroke-width="0.5"/>
   <polyline stroke="#262626" points="1157.27,311.726 1147.36,311.726" stroke-linejoin="miter" stroke-linecap="butt" fill="none" stroke-width="0.5"/>
   <polyline stroke="#262626" points="166.237,256.981 176.148,256.981" stroke-linejoin="miter" stroke-linecap="butt" fill="none" stroke-width="0.5"/>
   <polyline stroke="#262626" points="1157.27,256.981 1147.36,256.981" stroke-linejoin="miter" stroke-linecap="butt" fill="none" stroke-width="0.5"/>
   <polyline stroke="#262626" points="166.237,202.235 176.148,202.235" stroke-linejoin="miter" stroke-linecap="butt" fill="none" stroke-width="0.5"/>
   <polyline stroke="#262626" points="1157.27,202.235 1147.36,202.235" stroke-linejoin="miter" stroke-linecap="butt" fill="none" stroke-width="0.5"/>
   <polyline stroke="#262626" points="166.237,147.49 176.148,147.49" stroke-linejoin="miter" stroke-linecap="butt" fill="none" stroke-width="0.5"/>
   <polyline stroke="#262626" points="1157.27,147.49 1147.36,147.49" stroke-linejoin="miter" stroke-linecap="butt" fill="none" stroke-width="0.5"/>
   <polyline stroke="#262626" points="166.237,92.7451 176.148,92.7451" stroke-linejoin="miter" stroke-linecap="butt" fill="none" stroke-width="0.5"/>
   <polyline stroke="#262626" points="1157.27,92.7451 1147.36,92.7451" stroke-linejoin="miter" stroke-linecap="butt" fill="none" stroke-width="0.5"/>
   <polyline stroke="#262626" points="166.237,38 176.148,38" stroke-linejoin="miter" stroke-linecap="butt" fill="none" stroke-width="0.5"/>
   <polyline stroke="#262626" points="1157.27,38 1147.36,38" stroke-linejoin="miter" stroke-linecap="butt" fill="none" stroke-width="0.5"/>
   <g font-weight="normal" font-size="32" font-family="FreeSans" xml:space="preserve" transform="translate(121.237,378.471) rotate(-0,29,-12)" font-style="normal">
    <text x="0 11 " y="-0" fill="rgb(38,38,38)">-3</text>
   </g>
   <g font-weight="normal" font-size="32" font-family="FreeSans" xml:space="preserve" transform="translate(121.237,323.726) rotate(-0,29,-12)" font-style="normal">
    <text x="0 11 " y="-0" fill="rgb(38,38,38)">-2</text>
   </g>
   <g font-weight="normal" font-size="32" font-family="FreeSans" xml:space="preserve" transform="translate(121.237,268.981) rotate(-0,29,-12)" font-style="normal">
    <text x="0 11 " y="-0" fill="rgb(38,38,38)">-1</text>
   </g>
   <g font-weight="normal" font-size="32" font-family="FreeSans" xml:space="preserve" transform="translate(132.237,214.235) rotate(-0,18,-12)" font-style="normal">
    <text x="0 " y="-0" fill="rgb(38,38,38)">0</text>
   </g>
   <g font-weight="normal" font-size="32" font-family="FreeSans" xml:space="preserve" transform="translate(132.237,159.49) rotate(-0,18,-12)" font-style="normal">
    <text x="0 " y="-0" fill="rgb(38,38,38)">1</text>
   </g>
   <g font-weight="normal" font-size="32" font-family="FreeSans" xml:space="preserve" transform="translate(132.237,104.745) rotate(-0,18,-12)" font-style="normal">
    <text x="0 " y="-0" fill="rgb(38,38,38)">2</text>
   </g>
   <g font-weight="normal" font-size="32" font-family="FreeSans" xml:space="preserve" transform="translate(132.237,50) rotate(-0,18,-12)" font-style="normal">
    <text x="0 " y="-0" fill="rgb(38,38,38)">3</text>
   </g>
   <polyline stroke="#262626" stroke-dasharray="16,0" points="166.237,366.471 1157.27,366.471" stroke-linejoin="miter" stroke-linecap="square" fill="none" stroke-width="0.5"/>
   <polyline stroke="#262626" stroke-dasharray="16,0" points="166.237,38 1157.27,38" stroke-linejoin="miter" stroke-linecap="square" fill="none" stroke-width="0.5"/>
   <polyline stroke="#262626" stroke-dasharray="16,0" points="166.237,366.471 166.237,38" stroke-linejoin="miter" stroke-linecap="square" fill="none" stroke-width="0.5"/>
   <polyline stroke="#262626" stroke-dasharray="16,0" points="1157.27,366.471 1157.27,38" stroke-linejoin="miter" stroke-linecap="square" fill="none" stroke-width="0.5"/>
   <g font-weight="normal" font-size="35.2" font-family="FreeSans" xml:space="preserve" transform="translate(599.753,454.505) rotate(-0,62,-35)" font-style="normal">
    <text x="0 22 30 59 78 87 97 114 " y="-8" fill="rgb(38,38,38)">Time [s]</text>
   </g>
   <g font-weight="normal" font-size="35.2" font-family="FreeSans" xml:space="preserve" transform="translate(-74.263,202.235) rotate(-90,190.5,0)" font-style="normal">
    <text x="0 22 30 48 66 75 87 106 116 135 144 164 183 200 208 227 237 245 264 283 292 302 322 342 371 " y="-8" fill="rgb(38,38,38)">Tick rate deviation [ppm]</text>
   </g>
   <g font-weight="bold" font-size="35.2" font-family="FreeSans" xml:space="preserve" transform="translate(390.753,28) rotate(-0,271,0)" font-style="normal">
    <text x="0 25 39 61 88 110 120 140 162 172 203 225 237 247 269 291 301 313 335 349 359 371 398 420 430 450 460 482 502 522 " y="-1" fill="rgb(0,0,0)">Brownian motion for two clocks</text>
   </g>
   <polyline stroke="#0071bc" points="166.237,279.39 168.22,284.506 170.202,286.53 172.184,283.27 174.166,279.613 176.149,276.393 178.131,278.45 180.113,285.903 182.096,284.963 184.078,284.184 186.06,284.678 188.042,282.101 190.025,281.284 192.007,274.871 193.989,274.279 195.971,278.01 197.954,280.675 199.936,283.923 201.918,283.623 203.9,279.937 205.883,280.189 207.865,281.171 209.847,278.229 211.829,272.852 213.812,273.123 215.794,274.596 217.776,278.61 219.759,273.824 221.741,275.174 223.723,274.978 225.705,272.917 227.688,274.11 229.67,272.356 231.652,264.635 233.634,262.891 235.617,264.427 237.599,259.687 239.581,256.202 241.563,250.328 243.546,246.608 245.528,250.371 247.51,249.365 249.492,247.56 251.475,241.56 253.457,239.109 255.439,238.53 257.421,237.882 259.404,233.567 261.386,222.514 263.368,222.607 265.35,222.92 267.333,225.437 269.315,219.378 271.297,220.665 273.28,220.735 275.262,229.182 277.244,230.537 279.226,228.279 281.209,224.987 283.191,226.152 285.173,230.896 287.155,236.062 289.138,234.246 291.12,235.914 293.102,237.005 295.084,237.934 297.067,235.035 299.049,232.543 301.031,234.124 303.013,232.509 304.996,237.3 306.978,243.318 308.96,235.968 310.943,236.09 312.925,240.449 314.907,242.129 316.889,243.527 318.872,246.383 320.854,252.259 322.836,260.224 324.818,262.357 326.801,271.718 328.783,264.7 330.765,259.156 332.747,256.827 334.73,255.589 336.712,253.396 338.694,258.042 340.676,265.016 342.659,266.414 344.641,264.276 346.623,259.127 348.605,258.097 350.588,254.513 352.57,258.905 354.552,257.086 356.534,255.143 358.517,251.909 360.499,254.666 362.481,260.145 364.464,254.425 366.446,258.912 368.428,260.752 370.41,253.633 372.393,254.973 374.375,259.796 376.357,264.435 378.339,263.945 380.322,267.468 382.304,263.889 384.286,261.131 386.268,258.587 388.251,257.012 390.233,263.832 392.215,261.932 394.197,267.068 396.18,267.768 398.162,272.471 400.144,275.779 402.126,281.643 404.109,284.04 406.091,281.939 408.073,284.593 410.056,286.877 412.038,277.695 414.02,282.258 416.002,286.396 417.985,280.535 419.967,283.827 421.949,280.33 423.931,283.723 425.914,283.847 427.896,292.931 429.878,297.857 431.86,296.288 433.843,294.502 435.825,295.338 437.807,296.492 439.789,301.259 441.772,298.055 443.754,295.759 445.736,294.389 447.719,290.34 449.701,289.258 451.683,291 453.665,283.713 455.648,286.496 457.63,287.426 459.612,283.131 461.594,279.321 463.577,275.619 465.559,276.752 467.541,281.592 469.523,276.521 471.506,273.722 473.488,269.111 475.47,266.69 477.452,264.18 479.435,259.848 481.417,262.348 483.399,262.626 485.381,264.01 487.364,261.335 489.346,264.26 491.328,266.754 493.31,262.112 495.293,268.665 497.275,270.573 499.257,266.675 501.24,261.975 503.222,264.32 505.204,266.667 507.186,266.626 509.169,255.089 511.151,252.767 513.133,259.986 515.115,256.128 517.098,254.438 519.08,257.487 521.062,262.276 523.044,258.545 525.027,258.498 527.009,264.336 528.991,267.606 530.973,269.702 532.956,273.602 534.938,263.612 536.92,258.172 538.902,256.655 540.885,256.135 542.867,259.039 544.849,259.813 546.832,258.115 548.814,261.065 550.796,261.781 552.778,266.084 554.761,268.833 556.743,265.327 558.725,267.565 560.707,266.388 562.69,259.755 564.672,263.152 566.654,262.855 568.636,268.885 570.619,269.892 572.601,274.753 574.583,272.314 576.565,274.026 578.548,268.411 580.53,269.763 582.512,267.594 584.495,276.244 586.477,277.534 588.459,280.195 590.441,285.704 592.424,279.351 594.406,278.547 596.388,279.778 598.37,282.428 600.353,285.37 602.335,283.159 604.317,274.613 606.299,275.417 608.282,276.984 610.264,272.797 612.246,271.106 614.228,272.044 616.211,275.725 618.193,278.204 620.175,280.267 622.157,282.522 624.14,284.02 626.122,287.915 628.104,283.368 630.086,292.747 632.069,296.017 634.051,292.269 636.033,293.087 638.016,292.624 639.998,286.44 641.98,288.811 643.962,289.918 645.945,295.663 647.927,291.106 649.909,288.036 651.891,287.822 653.874,290.604 655.856,289.346 657.838,287.591 659.82,293.426 661.803,297.575 663.785,296.411 665.767,299.381 667.749,303.273 669.732,305.984 671.714,305.144 673.696,300.679 675.678,305.354 677.661,307.163 679.643,300.073 681.625,299.973 683.607,298.016 685.59,294.403 687.572,298.126 689.554,295.363 691.537,302.147 693.519,304.52 695.501,300.779 697.483,301.54 699.466,305.769 701.448,305.908 703.43,300.123 705.412,296.615 707.395,299.014 709.377,299.673 711.359,298.018 713.341,297.804 715.324,295.926 717.306,300.91 719.288,303.098 721.271,304.933 723.253,308.535 725.235,305.628 727.217,306.269 729.2,310.393 731.182,307.096 733.164,308.096 735.146,309.653 737.129,305.906 739.111,303.64 741.093,304.037 743.075,305.381 745.058,299.411 747.04,293.375 749.022,292.878 751.004,291.248 752.987,290.023 754.969,289.363 756.951,291.518 758.933,290.122 760.916,291.01 762.898,300.919 764.88,297.441 766.862,297.346 768.845,301.652 770.827,302.631 772.809,309.518 774.792,311.153 776.774,310.893 778.756,309.37 780.738,315.439 782.721,314.424 784.703,319.046 786.685,315.276 788.667,308.992 790.65,315.745 792.632,312.342 794.614,311.906 796.596,314.067 798.579,310.569 800.561,315.04 802.543,320.911 804.525,325.655 806.508,312.389 808.49,311.567 810.472,313.562 812.454,316.142 814.437,314.305 816.419,318.126 818.401,317.646 820.383,315.324 822.366,312.208 824.348,313.236 826.33,303.851 828.313,306.002 830.295,307.461 832.277,306.324 834.259,309.832 836.242,309.581 838.224,299.68 840.206,305.586 842.188,309.15 844.171,309.811 846.153,312.02 848.135,307.809 850.117,306.853 852.1,312.545 854.082,313.288 856.064,312.862 858.047,316.398 860.029,312.482 862.011,313.131 863.993,310.285 865.976,307.711 867.958,305.587 869.94,305.589 871.922,304.332 873.905,304.037 875.887,304.466 877.869,293.899 879.851,290.877 881.834,284.946 883.816,284.456 885.798,285.813 887.78,290.63 889.763,285.819 891.745,283.01 893.727,284.846 895.709,280.413 897.692,278.971 899.674,280.106 901.656,275.252 903.638,275.872 905.621,282.117 907.603,293.186 909.585,297.628 911.568,300.186 913.55,302.526 915.532,301.379 917.514,307.008 919.497,309.478 921.479,312.493 923.461,314.921 925.443,319 927.426,319.29 929.408,317.335 931.39,312.79 933.372,307.998 935.355,301.4 937.337,295.478 939.319,287.734 941.301,290.781 943.284,291.337 945.266,290.856 947.248,284.274 949.23,281.552 951.213,285.091 953.195,284.158 955.177,284.677 957.16,290.73 959.142,289.708 961.124,285.864 963.106,287.83 965.089,288.572 967.071,285.267 969.053,279.969 971.035,282.238 973.018,274.102 975,272.209 976.982,272.57 978.964,271.867 980.947,265.336 982.929,262.42 984.911,265.26 986.893,263.476 988.876,258.489 990.858,258.799 992.84,263.721 994.823,265.138 996.805,263.692 998.787,262.93 1000.77,257.637 1002.75,255.265 1004.73,253.249 1006.72,259.212 1008.7,259.069 1010.68,259.066 1012.66,260.22 1014.65,262.061 1016.63,258.576 1018.61,258.905 1020.59,260.33 1022.57,266.927 1024.56,261.628 1026.54,259.692 1028.52,256.475 1030.5,252.926 1032.49,256.475 1034.47,260.399 1036.45,260.146 1038.43,257.64 1040.41,263.113 1042.4,261.93 1044.38,262.424 1046.36,264.894 1048.34,268.167 1050.33,268.376 1052.31,272.528 1054.29,269.965 1056.27,267.723 1058.25,273.626 1060.24,268.803 1062.22,266.521 1064.2,261.029 1066.18,263.96 1068.17,262.753 1070.15,257.436 1072.13,252.679 1074.11,256.97 1076.1,256.376 1078.08,256.133 1080.06,258.02 1082.04,262.301 1084.02,266.627 1086.01,267.37 1087.99,263.665 1089.97,264.905 1091.95,264.522 1093.94,260.296 1095.92,256.599 1097.9,255.476 1099.88,257.203 1101.86,257.633 1103.85,255.965 1105.83,259.367 1107.81,255.177 1109.79,254.118 1111.78,258.757 1113.76,254.488 1115.74,249.753 1117.72,248.916 1119.7,250.572 1121.69,251.349 1123.67,255.942 1125.65,253.836 1127.63,257.673 1129.62,264.83 1131.6,262.84 1133.58,261.689 1135.56,259.186 1137.55,259.691 1139.53,262.39 1141.51,259.088 1143.49,258.507 1145.47,255.19 1147.46,256.648 1149.44,259.557 1151.42,261.448 1153.4,260.82 1155.39,260.971" stroke-linejoin="round" stroke-linecap="butt" fill="none" stroke-width="4"/>
   <polyline stroke="#d85218" points="166.237,145.32 168.22,141.273 170.202,148.393 172.184,142.617 174.166,140.432 176.149,140.61 178.131,139.046 180.113,132.221 182.096,130.442 184.078,126.796 186.06,121.566 188.042,120.164 190.025,122.663 192.007,124.561 193.989,121.655 195.971,121.318 197.954,125.818 199.936,121.714 201.918,123.983 203.9,135.571 205.883,139.527 207.865,132.096 209.847,133.337 211.829,124.319 213.812,118.509 215.794,122.601 217.776,124.659 219.759,127.862 221.741,133.326 223.723,129.449 225.705,131.14 227.688,134.795 229.67,135.908 231.652,137.182 233.634,141.443 235.617,144.581 237.599,141.648 239.581,143.714 241.563,138.78 243.546,135.023 245.528,134.976 247.51,133.263 249.492,132.121 251.475,130.833 253.457,136.342 255.439,136.586 257.421,137.561 259.404,139.67 261.386,141.16 263.368,140.278 265.35,145.108 267.333,144.733 269.315,145.082 271.297,138.493 273.28,140.497 275.262,144.847 277.244,144.45 279.226,147.978 281.209,142.577 283.191,142.404 285.173,139.812 287.155,142.593 289.138,141.438 291.12,141.944 293.102,138.846 295.084,139.001 297.067,136.991 299.049,129.121 301.031,121.043 303.013,122.591 304.996,124.207 306.978,127.859 308.96,126.661 310.943,127.421 312.925,127.657 314.907,119.527 316.889,118.387 318.872,122.832 320.854,127.274 322.836,125.459 324.818,129.931 326.801,130.605 328.783,133.494 330.765,137.561 332.747,136.46 334.73,138.909 336.712,134.326 338.694,135.804 340.676,136.788 342.659,131.612 344.641,130.647 346.623,127.283 348.605,123.299 350.588,128.554 352.57,128.37 354.552,127.309 356.534,124.338 358.517,131.549 360.499,127.387 362.481,122.056 364.464,120.835 366.446,126.079 368.428,123.446 370.41,120.491 372.393,116.917 374.375,116.254 376.357,112.558 378.339,118.221 380.322,120.356 382.304,124.248 384.286,129.533 386.268,132.64 388.251,134.626 390.233,132.82 392.215,130.66 394.197,128.081 396.18,136.133 398.162,133.369 400.144,129.807 402.126,127.123 404.109,127.109 406.091,122.203 408.073,128.853 410.056,124.423 412.038,117.94 414.02,117.209 416.002,118.126 417.985,115.669 419.967,117.512 421.949,118.613 423.931,118.476 425.914,116.809 427.896,118.481 429.878,116.203 431.86,117.242 433.843,122.052 435.825,118.351 437.807,124.019 439.789,123.353 441.772,122.453 443.754,124.644 445.736,126.56 447.719,124.127 449.701,116.422 451.683,120.666 453.665,123.644 455.648,128.244 457.63,129.731 459.612,122.768 461.594,120.141 463.577,122.446 465.559,123.616 467.541,123.247 469.523,128.894 471.506,130.16 473.488,126.196 475.47,126.648 477.452,128.101 479.435,124.321 481.417,127.004 483.399,133.973 485.381,130.92 487.364,124.277 489.346,127.186 491.328,127.538 493.31,123.03 495.293,119.658 497.275,112.436 499.257,109.931 501.24,109.748 503.222,114.545 505.204,114.077 507.186,104.843 509.169,102.658 511.151,103.894 513.133,112.133 515.115,110.769 517.098,111.869 519.08,113.18 521.062,110.139 523.044,104.801 525.027,103.673 527.009,104.705 528.991,104.882 530.973,101.313 532.956,102.099 534.938,103.447 536.92,104.805 538.902,106.74 540.885,109.655 542.867,105.774 544.849,107.676 546.832,108.093 548.814,100.49 550.796,101.63 552.778,96.4028 554.761,101.859 556.743,109.609 558.725,112.688 560.707,110.036 562.69,109.817 564.672,106.262 566.654,109.571 568.636,106.894 570.619,106.76 572.601,107.39 574.583,105.842 576.565,101.484 578.548,99.971 580.53,96.9763 582.512,93.0281 584.495,91.3349 586.477,94.4673 588.459,94.2401 590.441,101.557 592.424,97.7722 594.406,93.5361 596.388,95.188 598.37,95.5279 600.353,94.3082 602.335,99.2528 604.317,102.529 606.299,96.4455 608.282,95.4031 610.264,93.3345 612.246,89.7607 614.228,92.4592 616.211,96.7564 618.193,95.517 620.175,106.276 622.157,113.131 624.14,110.834 626.122,113.747 628.104,112.446 630.086,115.04 632.069,118.664 634.051,122.635 636.033,127.336 638.016,127.575 639.998,125.923 641.98,133.436 643.962,134.873 645.945,129.23 647.927,129.37 649.909,129.594 651.891,129.028 653.874,126.914 655.856,127.612 657.838,126.048 659.82,123.046 661.803,124.329 663.785,128.279 665.767,133.32 667.749,135.225 669.732,137.549 671.714,134.451 673.696,132.622 675.678,132.328 677.661,133.329 679.643,136.771 681.625,139.052 683.607,140.041 685.59,149.592 687.572,151.483 689.554,154.18 691.537,159.495 693.519,157.555 695.501,155.538 697.483,156.955 699.466,147.753 701.448,152.467 703.43,158.933 705.412,160.499 707.395,164.635 709.377,157.203 711.359,158.073 713.341,153.774 715.324,145.944 717.306,151.381 719.288,150.944 721.271,151.954 723.253,147.108 725.235,144.24 727.217,145.639 729.2,151.231 731.182,154.774 733.164,155.253 735.146,152.017 737.129,152.237 739.111,153.03 741.093,147.748 743.075,147.484 745.058,140.744 747.04,147.842 749.022,145.968 751.004,145.448 752.987,148.17 754.969,144.778 756.951,144.08 758.933,138.84 760.916,135.721 762.898,138.406 764.88,136.959 766.862,134.359 768.845,138.318 770.827,141.012 772.809,141.864 774.792,147.235 776.774,149.972 778.756,143.4 780.738,137.175 782.721,135.942 784.703,141.217 786.685,144.44 788.667,141.398 790.65,144.863 792.632,145.928 794.614,151.915 796.596,148.071 798.579,141.778 800.561,149.642 802.543,146.847 804.525,143.967 806.508,139.868 808.49,139.387 810.472,140.25 812.454,141.184 814.437,136.417 816.419,136.575 818.401,138.823 820.383,145.813 822.366,145.924 824.348,153.517 826.33,149.188 828.313,148.86 830.295,149.449 832.277,152.102 834.259,157.96 836.242,160.616 838.224,161.955 840.206,158.717 842.188,156.589 844.171,161.554 846.153,160.455 848.135,156.283 850.117,153.952 852.1,156.403 854.082,154.42 856.064,154.963 858.047,155.241 860.029,153.615 862.011,154.35 863.993,156.801 865.976,159.701 867.958,160.267 869.94,161.055 871.922,165.802 873.905,174.697 875.887,180.615 877.869,179.915 879.851,175.944 881.834,175.645 883.816,181.681 885.798,179.541 887.78,184.953 889.763,182.702 891.745,179.738 893.727,173.559 895.709,172.117 897.692,166.727 899.674,166.451 901.656,170.812 903.638,172.423 905.621,167.854 907.603,171.473 909.585,170.283 911.568,165.491 913.55,168.816 915.532,162.631 917.514,160.969 919.497,160.173 921.479,162.728 923.461,167.857 925.443,169.173 927.426,170.049 929.408,173.075 931.39,179.709 933.372,178.206 935.355,185.106 937.337,186.563 939.319,187.517 941.301,188.278 943.284,190.863 945.266,190.748 947.248,177.407 949.23,171.522 951.213,170.91 953.195,165.47 955.177,171.357 957.16,166.748 959.142,162.773 961.124,159.526 963.106,157.852 965.089,158.227 967.071,156.61 969.053,157.965 971.035,152.842 973.018,158.633 975,150.899 976.982,151.867 978.964,147.001 980.947,149.195 982.929,148.741 984.911,148.64 986.893,149.004 988.876,146.49 990.858,146.319 992.84,153.8 994.823,152.858 996.805,156.847 998.787,158.674 1000.77,165.543 1002.75,165.07 1004.73,169.425 1006.72,164.08 1008.7,161.62 1010.68,165.361 1012.66,163.561 1014.65,164.134 1016.63,158.466 1018.61,162.066 1020.59,161.958 1022.57,159.043 1024.56,154.565 1026.54,146.974 1028.52,140.814 1030.5,137.028 1032.49,132.274 1034.47,128.816 1036.45,126.343 1038.43,119.407 1040.41,116.97 1042.4,120.189 1044.38,118.901 1046.36,125.202 1048.34,128.021 1050.33,127.466 1052.31,125.97 1054.29,131.573 1056.27,137.356 1058.25,131.244 1060.24,138.802 1062.22,142.233 1064.2,144.374 1066.18,147.541 1068.17,144.67 1070.15,143.575 1072.13,146.48 1074.11,141.509 1076.1,141.068 1078.08,140.853 1080.06,142.986 1082.04,138.742 1084.02,138.847 1086.01,143.563 1087.99,143.291 1089.97,146.129 1091.95,146.001 1093.94,151.338 1095.92,156.897 1097.9,155.605 1099.88,156.803 1101.86,149.611 1103.85,143.683 1105.83,144.628 1107.81,144.067 1109.79,144.664 1111.78,150.341 1113.76,155.425 1115.74,152.551 1117.72,145.91 1119.7,146.388 1121.69,153.63 1123.67,153.887 1125.65,151.302 1127.63,147.071 1129.62,146.381 1131.6,145.397 1133.58,148.436 1135.56,141.179 1137.55,141.639 1139.53,142.44 1141.51,145.48 1143.49,151.026 1145.47,151.125 1147.46,151.755 1149.44,150.954 1151.42,144.482 1153.4,149.355 1155.39,148.612" stroke-linejoin="round" stroke-linecap="butt" fill="none" stroke-width="4"/>
  </g>
  <clipPath id="cp001278454">
   <polygon points="0,454 1278,454 1278,0 0,0"/>
  </clipPath>
  <g clip-path="url(#cp001278454)">
   <polygon points="918.269,111.76 1149.27,111.76 1149.27,46 918.269,46" shape-rendering="crispEdges" fill="#ffffff"/>
   <polyline stroke="#262626" stroke-dasharray="16,0" points="918.269,111.76 1149.27,111.76" stroke-linejoin="miter" stroke-linecap="square" fill="none" stroke-width="0.5"/>
   <polyline stroke="#262626" stroke-dasharray="16,0" points="918.269,46 1149.27,46" stroke-linejoin="miter" stroke-linecap="square" fill="none" stroke-width="0.5"/>
   <polyline stroke="#262626" stroke-dasharray="16,0" points="918.269,111.76 918.269,46" stroke-linejoin="miter" stroke-linecap="square" fill="none" stroke-width="0.5"/>
   <polyline stroke="#262626" stroke-dasharray="16,0" points="1149.27,111.76 1149.27,46" stroke-linejoin="miter" stroke-linecap="square" fill="none" stroke-width="0.5"/>
   <polyline stroke="#0071bc" points="922.269,63.44 942.269,63.44" stroke-linejoin="round" stroke-linecap="butt" fill="none" stroke-width="4"/>
   <g font-weight="normal" font-size="28.8" font-family="FreeSans" xml:space="preserve" transform="translate(946.269,74.44) rotate(-0,-0,-11)" font-style="normal">
    <text x="0 18 28 38 53 63 70 78 93 103 110 125 131 146 161 176 183 " y="-0" fill="rgb(0,0,0)">Error for clock 1</text>
   </g>
   <polyline stroke="#d85218" points="922.269,94.32 942.269,94.32" stroke-linejoin="round" stroke-linecap="butt" fill="none" stroke-width="4"/>
   <g font-weight="normal" font-size="28.8" font-family="FreeSans" xml:space="preserve" transform="translate(946.269,105.32) rotate(-0,-0,-11)" font-style="normal">
    <text x="0 18 28 38 53 63 70 78 93 103 110 125 131 146 161 176 183 " y="-0" fill="rgb(0,0,0)">Error for clock 2</text>
   </g>
  </g>
 </g>
</svg>
