<?xml version='1.0' encoding='UTF-8' standalone='no'?>
<svg viewBox="0 0 1483 536" height="536pt" xmlns="http://www.w3.org/2000/svg" xmlns:xlink="http://www.w3.org/1999/xlink" width="1483pt">
 <title>Figure 4</title>
 <desc>
Creator: GL2PS 1.4.2, (C) 1999-2020 C. Geuzaine
For: Octave
CreationDate: Tue Jul  4 09:13:39 2023
</desc>
 <defs/>
 <polygon fill="#ffffff" points="0,0 1483,0 1483,536 0,536"/>
 <g>
  <polygon fill="#ffffff" shape-rendering="crispEdges" points="0,536 1483,536 1483,0 0,0"/>
  <clipPath id="cp001483536">
   <polygon points="0,536 1483,536 1483,0 0,0"/>
  </clipPath>
  <g clip-path="url(#cp001483536)">
   <polygon fill="#ffffff" shape-rendering="crispEdges" points="192.797,463.843 1342.17,463.843 1342.17,40.2261 192.797,40.2261"/>
   <polyline stroke-linecap="butt" stroke="#262626" stroke-width="0.5" stroke-dasharray="16,0" stroke-opacity="0.15" fill="none" stroke-linejoin="miter" points="192.797,463.843 192.797,40.2261"/>
   <polyline stroke-linecap="butt" stroke="#262626" stroke-width="0.5" stroke-dasharray="16,0" stroke-opacity="0.15" fill="none" stroke-linejoin="miter" points="422.671,463.843 422.671,40.2261"/>
   <polyline stroke-linecap="butt" stroke="#262626" stroke-width="0.5" stroke-dasharray="16,0" stroke-opacity="0.15" fill="none" stroke-linejoin="miter" points="652.545,463.843 652.545,40.2261"/>
   <polyline stroke-linecap="butt" stroke="#262626" stroke-width="0.5" stroke-dasharray="16,0" stroke-opacity="0.15" fill="none" stroke-linejoin="miter" points="882.419,463.843 882.419,40.2261"/>
   <polyline stroke-linecap="butt" stroke="#262626" stroke-width="0.5" stroke-dasharray="16,0" stroke-opacity="0.15" fill="none" stroke-linejoin="miter" points="1112.29,463.843 1112.29,40.2261"/>
   <polyline stroke-linecap="butt" stroke="#262626" stroke-width="0.5" stroke-dasharray="16,0" stroke-opacity="0.15" fill="none" stroke-linejoin="miter" points="1342.17,463.843 1342.17,40.2261"/>
   <polyline stroke-linecap="butt" stroke="#262626" stroke-width="0.5" fill="none" stroke-linejoin="miter" points="192.797,463.843 192.797,452.36"/>
   <polyline stroke-linecap="butt" stroke="#262626" stroke-width="0.5" fill="none" stroke-linejoin="miter" points="192.797,40.2261 192.797,51.7095"/>
   <polyline stroke-linecap="butt" stroke="#262626" stroke-width="0.5" fill="none" stroke-linejoin="miter" points="422.671,463.843 422.671,452.36"/>
   <polyline stroke-linecap="butt" stroke="#262626" stroke-width="0.5" fill="none" stroke-linejoin="miter" points="422.671,40.2261 422.671,51.7095"/>
   <polyline stroke-linecap="butt" stroke="#262626" stroke-width="0.5" fill="none" stroke-linejoin="miter" points="652.545,463.843 652.545,452.36"/>
   <polyline stroke-linecap="butt" stroke="#262626" stroke-width="0.5" fill="none" stroke-linejoin="miter" points="652.545,40.2261 652.545,51.7095"/>
   <polyline stroke-linecap="butt" stroke="#262626" stroke-width="0.5" fill="none" stroke-linejoin="miter" points="882.419,463.843 882.419,452.36"/>
   <polyline stroke-linecap="butt" stroke="#262626" stroke-width="0.5" fill="none" stroke-linejoin="miter" points="882.419,40.2261 882.419,51.7095"/>
   <polyline stroke-linecap="butt" stroke="#262626" stroke-width="0.5" fill="none" stroke-linejoin="miter" points="1112.29,463.843 1112.29,452.36"/>
   <polyline stroke-linecap="butt" stroke="#262626" stroke-width="0.5" fill="none" stroke-linejoin="miter" points="1112.29,40.2261 1112.29,51.7095"/>
   <polyline stroke-linecap="butt" stroke="#262626" stroke-width="0.5" fill="none" stroke-linejoin="miter" points="1342.17,463.843 1342.17,452.36"/>
   <polyline stroke-linecap="butt" stroke="#262626" stroke-width="0.5" fill="none" stroke-linejoin="miter" points="1342.17,40.2261 1342.17,51.7095"/>
   <g transform="translate(185.798,502.326) rotate(-0,7,-19)" font-family="FreeSans" font-size="26" font-weight="normal" xml:space="preserve" font-style="normal">
    <text x="0 " y="-0" fill="rgb(38,38,38)">0</text>
   </g>
   <g transform="translate(401.672,502.326) rotate(-0,21,-19)" font-family="FreeSans" font-size="26" font-weight="normal" xml:space="preserve" font-style="normal">
    <text x="0 14 28 " y="-0" fill="rgb(38,38,38)">200</text>
   </g>
   <g transform="translate(631.545,502.326) rotate(-0,21,-19)" font-family="FreeSans" font-size="26" font-weight="normal" xml:space="preserve" font-style="normal">
    <text x="0 14 28 " y="-0" fill="rgb(38,38,38)">400</text>
   </g>
   <g transform="translate(861.419,502.326) rotate(-0,21,-19)" font-family="FreeSans" font-size="26" font-weight="normal" xml:space="preserve" font-style="normal">
    <text x="0 14 28 " y="-0" fill="rgb(38,38,38)">600</text>
   </g>
   <g transform="translate(1091.29,502.326) rotate(-0,21,-19)" font-family="FreeSans" font-size="26" font-weight="normal" xml:space="preserve" font-style="normal">
    <text x="0 14 28 " y="-0" fill="rgb(38,38,38)">800</text>
   </g>
   <g transform="translate(1314.17,502.326) rotate(-0,28,-19)" font-family="FreeSans" font-size="26" font-weight="normal" xml:space="preserve" font-style="normal">
    <text x="0 14 28 42 " y="-0" fill="rgb(38,38,38)">1000</text>
   </g>
   <polyline stroke-linecap="butt" stroke="#262626" stroke-width="0.5" stroke-dasharray="16,0" stroke-opacity="0.15" fill="none" stroke-linejoin="miter" points="192.797,463.843 1342.17,463.843"/>
   <polyline stroke-linecap="butt" stroke="#262626" stroke-width="0.5" stroke-dasharray="16,0" stroke-opacity="0.15" fill="none" stroke-linejoin="miter" points="192.797,379.12 1342.17,379.12"/>
   <polyline stroke-linecap="butt" stroke="#262626" stroke-width="0.5" stroke-dasharray="16,0" stroke-opacity="0.15" fill="none" stroke-linejoin="miter" points="192.797,294.396 1342.17,294.396"/>
   <polyline stroke-linecap="butt" stroke="#262626" stroke-width="0.5" stroke-dasharray="16,0" stroke-opacity="0.15" fill="none" stroke-linejoin="miter" points="192.797,209.673 1342.17,209.673"/>
   <polyline stroke-linecap="butt" stroke="#262626" stroke-width="0.5" stroke-dasharray="16,0" stroke-opacity="0.15" fill="none" stroke-linejoin="miter" points="192.797,124.95 1342.17,124.95"/>
   <polyline stroke-linecap="butt" stroke="#262626" stroke-width="0.5" stroke-dasharray="16,0" stroke-opacity="0.15" fill="none" stroke-linejoin="miter" points="192.797,40.2261 1342.17,40.2261"/>
   <polyline stroke-linecap="butt" stroke="#262626" stroke-width="0.5" fill="none" stroke-linejoin="miter" points="192.797,463.843 204.295,463.843"/>
   <polyline stroke-linecap="butt" stroke="#262626" stroke-width="0.5" fill="none" stroke-linejoin="miter" points="1342.17,463.843 1330.67,463.843"/>
   <polyline stroke-linecap="butt" stroke="#262626" stroke-width="0.5" fill="none" stroke-linejoin="miter" points="192.797,379.12 204.295,379.12"/>
   <polyline stroke-linecap="butt" stroke="#262626" stroke-width="0.5" fill="none" stroke-linejoin="miter" points="1342.17,379.12 1330.67,379.12"/>
   <polyline stroke-linecap="butt" stroke="#262626" stroke-width="0.5" fill="none" stroke-linejoin="miter" points="192.797,294.396 204.295,294.396"/>
   <polyline stroke-linecap="butt" stroke="#262626" stroke-width="0.5" fill="none" stroke-linejoin="miter" points="1342.17,294.396 1330.67,294.396"/>
   <polyline stroke-linecap="butt" stroke="#262626" stroke-width="0.5" fill="none" stroke-linejoin="miter" points="192.797,209.673 204.295,209.673"/>
   <polyline stroke-linecap="butt" stroke="#262626" stroke-width="0.5" fill="none" stroke-linejoin="miter" points="1342.17,209.673 1330.67,209.673"/>
   <polyline stroke-linecap="butt" stroke="#262626" stroke-width="0.5" fill="none" stroke-linejoin="miter" points="192.797,124.95 204.295,124.95"/>
   <polyline stroke-linecap="butt" stroke="#262626" stroke-width="0.5" fill="none" stroke-linejoin="miter" points="1342.17,124.95 1330.67,124.95"/>
   <polyline stroke-linecap="butt" stroke="#262626" stroke-width="0.5" fill="none" stroke-linejoin="miter" points="192.797,40.2261 204.295,40.2261"/>
   <polyline stroke-linecap="butt" stroke="#262626" stroke-width="0.5" fill="none" stroke-linejoin="miter" points="1342.17,40.2261 1330.67,40.2261"/>
   <g transform="translate(156.793,473.343) rotate(-0,23,-9.5)" font-family="FreeSans" font-size="26" font-weight="normal" xml:space="preserve" font-style="normal">
    <text x="0 9 " y="-0" fill="rgb(38,38,38)">-6</text>
   </g>
   <g transform="translate(156.793,388.62) rotate(-0,23,-9.5)" font-family="FreeSans" font-size="26" font-weight="normal" xml:space="preserve" font-style="normal">
    <text x="0 9 " y="-0" fill="rgb(38,38,38)">-4</text>
   </g>
   <g transform="translate(156.793,303.896) rotate(-0,23,-9.5)" font-family="FreeSans" font-size="26" font-weight="normal" xml:space="preserve" font-style="normal">
    <text x="0 9 " y="-0" fill="rgb(38,38,38)">-2</text>
   </g>
   <g transform="translate(165.793,219.173) rotate(-0,14,-9.5)" font-family="FreeSans" font-size="26" font-weight="normal" xml:space="preserve" font-style="normal">
    <text x="0 " y="-0" fill="rgb(38,38,38)">0</text>
   </g>
   <g transform="translate(165.793,134.45) rotate(-0,14,-9.5)" font-family="FreeSans" font-size="26" font-weight="normal" xml:space="preserve" font-style="normal">
    <text x="0 " y="-0" fill="rgb(38,38,38)">2</text>
   </g>
   <g transform="translate(165.793,49.7261) rotate(-0,14,-9.5)" font-family="FreeSans" font-size="26" font-weight="normal" xml:space="preserve" font-style="normal">
    <text x="0 " y="-0" fill="rgb(38,38,38)">4</text>
   </g>
   <polyline stroke-linecap="square" stroke="#262626" stroke-width="0.5" stroke-dasharray="16,0" fill="none" stroke-linejoin="miter" points="192.797,463.843 1342.17,463.843"/>
   <polyline stroke-linecap="square" stroke="#262626" stroke-width="0.5" stroke-dasharray="16,0" fill="none" stroke-linejoin="miter" points="192.797,40.2261 1342.17,40.2261"/>
   <polyline stroke-linecap="square" stroke="#262626" stroke-width="0.5" stroke-dasharray="16,0" fill="none" stroke-linejoin="miter" points="192.797,463.843 192.797,40.2261"/>
   <polyline stroke-linecap="square" stroke="#262626" stroke-width="0.5" stroke-dasharray="16,0" fill="none" stroke-linejoin="miter" points="1342.17,463.843 1342.17,40.2261"/>
   <g transform="translate(717.982,536.326) rotate(-0,49.5,-29)" font-family="FreeSans" font-size="28.6" font-weight="normal" xml:space="preserve" font-style="normal">
    <text x="0 18 24 47 62 69 77 91 " y="-7" fill="rgb(38,38,38)">Time [s]</text>
   </g>
   <g transform="translate(-0.706658,252.035) rotate(-90,152.5,0)" font-family="FreeSans" font-size="28.6" font-weight="normal" xml:space="preserve" font-style="normal">
    <text x="0 18 24 38 53 60 70 86 94 109 116 132 147 161 167 183 191 197 212 227 234 242 258 274 297 " y="-7" fill="rgb(38,38,38)">Tick rate deviation [ppm]</text>
   </g>
   <g transform="translate(547.482,30.2261) rotate(-0,220,0)" font-family="FreeSans" font-size="28.6" font-weight="bold" xml:space="preserve" font-style="normal">
    <text x="0 20 31 49 71 89 97 113 131 139 165 183 193 201 219 237 245 255 273 284 292 302 324 342 350 366 374 392 408 424 " y="-1" fill="rgb(0,0,0)">Brownian motion for two clocks</text>
   </g>
   <polyline stroke-linecap="butt" stroke="#0071bc" stroke-width="4" fill="none" stroke-linejoin="round" points="215.672,374.396 217.971,376.906 220.27,377.446 222.569,374.254 224.868,373.174 227.167,372.36 229.466,371.345 231.765,365.359 234.064,367.559 236.363,364.816 238.662,370.305 240.961,364.334 243.26,362.185 245.559,366.02 247.858,363.511 250.157,361.158 252.456,361.142 254.755,366.426 257.054,368.065 259.353,365.903 261.652,368.579 263.951,370.371 266.25,372.294 268.549,375.034 270.848,378.167 273.146,384.311 275.445,388.381 277.745,388.387 280.043,390.833 282.342,392.642 284.642,390.881 286.94,391.706 289.239,393.154 291.538,397.061 293.837,400.818 296.136,403.911 298.435,404.798 300.734,399.972 303.033,399.228 305.332,395.646 307.631,396.874 309.93,398.49 312.229,402.17 314.528,401.155 316.827,399.483 319.126,397.947 321.425,396.704 323.724,400.192 326.023,395.491 328.322,391.315 330.621,391.704 332.92,390.475 335.219,389.927 337.518,387.756 339.817,389.439 342.116,386.237 344.415,390.921 346.713,390.398 349.013,391.477 351.312,389.428 353.61,390.878 355.91,388.746 358.208,389.366 360.507,386.626 362.806,385.103 365.105,388.133 367.404,386.131 369.703,388.247 372.002,388.25 374.301,386.51 376.6,386.285 378.899,385.328 381.198,384.864 383.497,386.128 385.796,389.753 388.095,386.773 390.394,387.307 392.693,392.221 394.992,389.277 397.291,385.558 399.59,386.256 401.889,380.509 404.188,380.717 406.487,380.965 408.786,385.085 411.085,386.194 413.384,387.109 415.683,388.427 417.981,387.65 420.281,391.369 422.58,389.362 424.878,388.34 427.178,386.894 429.477,389.208 431.775,388.292 434.074,388.315 436.374,392.346 438.672,402.048 440.971,397.675 443.271,392.582 445.569,385.118 447.868,385.935 450.167,381.947 452.466,379.165 454.765,382.129 457.064,386.211 459.363,388.257 461.662,387.83 463.961,383.376 466.26,379.816 468.559,379.134 470.858,375.597 473.157,371.845 475.456,375.457 477.755,376.652 480.054,380.594 482.353,383.774 484.652,383.894 486.951,384.151 489.25,391.187 491.549,393.609 493.848,391.337 496.146,393.755 498.446,391.718 500.745,394.998 503.043,399.216 505.342,397.721 507.642,400.388 509.94,401.553 512.239,404.189 514.539,402.078 516.837,406.704 519.136,409.02 521.435,413.817 523.734,414.645 526.033,414.518 528.332,410.574 530.631,408.777 532.93,408.083 535.229,409.088 537.528,404.034 539.827,401.598 542.126,401.882 544.425,396.678 546.724,398.559 549.023,398.946 551.322,396.177 553.621,395.909 555.92,397.238 558.219,396.923 560.518,393.646 562.817,395.722 565.116,399.115 567.415,401.913 569.714,400.38 572.013,395.436 574.312,398.909 576.61,395.495 578.91,396.099 581.208,399.043 583.507,391.438 585.807,384.347 588.105,381.275 590.404,382.75 592.703,384.659 595.002,382.081 597.301,378.344 599.6,374.47 601.899,375.704 604.198,372.131 606.497,376.384 608.796,373.778 611.095,376.72 613.394,373.061 615.693,368.76 617.992,368.16 620.291,365.211 622.59,373.851 624.889,371.239 627.188,363.622 629.487,361.531 631.786,364.469 634.085,367.682 636.384,369.478 638.683,371.381 640.982,372.972 643.281,373.56 645.58,372.73 647.879,370.797 650.178,372.553 652.477,373.691 654.775,371.207 657.075,373.23 659.374,373.919 661.672,376.122 663.971,376.293 666.271,380.961 668.569,382.835 670.868,384.894 673.167,386.056 675.466,389.937 677.765,387.897 680.064,387.965 682.363,386.352 684.662,386.498 686.961,383.463 689.26,383.196 691.559,387.851 693.858,385.746 696.157,388.5 698.456,386.783 700.755,388.263 703.054,387.828 705.353,390.573 707.652,391.498 709.951,397.725 712.25,395.207 714.549,392.537 716.848,386.592 719.147,386.978 721.446,389.019 723.745,395.837 726.043,399.139 728.343,402.204 730.642,405.632 732.94,408.963 735.24,406.715 737.539,407.541 739.837,409.351 742.136,410.323 744.436,408.189 746.734,404.528 749.033,404.413 751.333,404.337 753.631,400.927 755.93,406.638 758.229,401.394 760.528,399.761 762.827,398.846 765.126,397.583 767.425,395.688 769.724,398.878 772.023,400.286 774.322,395.391 776.621,393.65 778.92,399.103 781.219,397.627 783.518,398.011 785.817,405.506 788.116,409.373 790.415,412.596 792.714,414.39 795.013,418.243 797.312,418.906 799.611,423.57 801.91,428.1 804.208,430.731 806.507,433.599 808.807,429.927 811.105,428.389 813.404,431.591 815.704,428.102 818.002,424.989 820.301,431.723 822.6,428.113 824.899,426.792 827.198,425.904 829.497,424.436 831.796,426.038 834.095,424.806 836.394,426.21 838.693,430.414 840.992,425.044 843.291,421.852 845.59,426.323 847.889,423.694 850.188,425.874 852.487,428.036 854.786,425.303 857.085,417.415 859.384,422.757 861.683,423.867 863.982,424.424 866.281,427.936 868.58,431.75 870.879,430.322 873.178,424.854 875.477,423.958 877.775,425.594 880.075,426.235 882.374,429.89 884.672,429.657 886.972,428.35 889.271,423.494 891.569,420.643 893.869,416.793 896.167,419.958 898.466,415.806 900.765,414.278 903.064,416.059 905.363,417.576 907.662,417.944 909.961,414.33 912.26,414.353 914.559,410.647 916.858,408.977 919.157,404.713 921.456,402.137 923.755,403.557 926.054,408.651 928.353,409.356 930.652,412.828 932.951,406.645 935.25,407.768 937.549,405.392 939.848,405.765 942.147,404.548 944.446,404.076 946.745,403.104 949.044,404.07 951.343,403.642 953.642,402.858 955.94,404.758 958.24,404.981 960.539,400.121 962.837,402.489 965.137,399.648 967.436,402.21 969.734,401.081 972.033,404.105 974.333,406.366 976.631,407.353 978.93,404.441 981.229,404.34 983.528,404.268 985.827,404.577 988.126,403.054 990.425,404.506 992.724,402.067 995.023,395.296 997.322,398.438 999.621,395.36 1001.92,395.026 1004.22,396.988 1006.52,395.613 1008.82,393.066 1011.12,388.457 1013.42,389.961 1015.71,390.092 1018.01,394.06 1020.31,390.926 1022.61,392.542 1024.91,394.555 1027.21,396.44 1029.51,392.291 1031.81,394.769 1034.11,395.798 1036.4,396.53 1038.7,396.756 1041,391.86 1043.3,393.091 1045.6,391.56 1047.9,393.937 1050.2,389.938 1052.5,389.2 1054.8,391.484 1057.1,393.192 1059.39,390.351 1061.69,388.637 1063.99,389.009 1066.29,391.098 1068.59,385.148 1070.89,383.936 1073.19,383.891 1075.49,387.164 1077.79,384.548 1080.08,384.548 1082.38,383.582 1084.68,386.515 1086.98,385.797 1089.28,388.984 1091.58,386.049 1093.88,387.43 1096.18,385.423 1098.48,387.656 1100.78,385.887 1103.07,387.078 1105.37,386.158 1107.67,383.485 1109.97,379.724 1112.27,383.189 1114.57,379.652 1116.87,382.792 1119.17,386.253 1121.47,383.661 1123.77,383.631 1126.06,380.866 1128.36,385.576 1130.66,378.09 1132.96,376.899 1135.26,380.269 1137.56,380.603 1139.86,381.218 1142.16,378.67 1144.46,374.871 1146.75,380.176 1149.05,380.359 1151.35,379.121 1153.65,378.917 1155.95,378.586 1158.25,376.2 1160.55,377.387 1162.85,378.276 1165.15,377.356 1167.45,378.257 1169.74,379.814 1172.04,378.958 1174.34,379.058 1176.64,377.485 1178.94,381.422 1181.24,379.723 1183.54,375.396 1185.84,369.633 1188.14,365.488 1190.44,366.196 1192.73,366.676 1195.03,365.062 1197.33,363.368 1199.63,364.123 1201.93,369.555 1204.23,367.215 1206.53,361.759 1208.83,364.731 1211.13,371.512 1213.43,372.138 1215.72,370.693 1218.02,372.447 1220.32,369.99 1222.62,371.701 1224.92,369.489 1227.22,365.549 1229.52,367.35 1231.82,369.378 1234.12,367.618 1236.42,367.236 1238.71,364.13 1241.01,365.646 1243.31,368.471 1245.61,364.659 1247.91,362.868 1250.21,361.84 1252.51,361.945 1254.81,355.73 1257.11,352.66 1259.4,351.516 1261.7,344.967 1264,344.658 1266.3,345.36 1268.6,344.975 1270.9,345.154 1273.2,348.178 1275.5,346.243 1277.8,346.706 1280.1,352.104 1282.39,346.649 1284.69,348.316 1286.99,352.412 1289.29,351.451 1291.59,352.74 1293.89,354.048 1296.19,358.504 1298.49,357.776 1300.79,363.056 1303.08,353.317 1305.38,352.659 1307.68,347.584 1309.98,351.742 1312.28,349.854 1314.58,351.637 1316.88,352.568 1319.18,350.982 1321.48,356.969 1323.78,358.455 1326.07,360.75 1328.37,359.082 1330.67,359.612 1332.97,360.986 1335.27,363.712 1337.57,357.02 1339.87,360.536 1342.17,361.278"/>
   <polyline stroke-linecap="butt" stroke="#d85218" stroke-width="4" fill="none" stroke-linejoin="round" points="215.672,43.1685 217.971,50.0591 220.27,54.6006 222.569,51.2207 224.868,48.6807 227.167,49.0752 229.466,51.8135 231.765,53.7783 234.064,50.3149 236.363,48.7739 238.662,50.5747 240.961,58.7476 243.26,61.0352 245.559,58.7939 247.858,60.6738 250.157,64.7388 252.456,64.3472 254.755,65.0376 257.054,68.8701 259.353,73.8325 261.652,73.5898 263.951,71.5996 266.25,69.6353 268.549,66.1777 270.848,69.7231 273.146,70.7896 275.445,67.8428 277.745,66.7837 280.043,62.2354 282.342,59.0532 284.642,58.6841 286.94,60.7261 289.239,59.1211 291.538,58.5889 293.837,63.1406 296.136,64.5112 298.435,64.5234 300.734,65.3257 303.033,59.8872 305.332,53.8882 307.631,57.0532 309.93,60.127 312.229,58.7148 314.528,60.8296 316.827,61.9819 319.126,64.1377 321.425,67.2676 323.724,65.7085 326.023,68.085 328.322,66.4971 330.621,63.1411 332.92,59.6104 335.219,58.623 337.518,59.6406 339.817,57.8691 342.116,57.4565 344.415,63.4966 346.713,65.6279 349.013,71.9082 351.312,73.2114 353.61,73.6543 355.91,66.625 358.208,67.958 360.507,72.1147 362.806,76.9243 365.105,78.6362 367.404,83.9497 369.703,88.6841 372.002,84.9761 374.301,80.8535 376.6,80.5225 378.899,71.9414 381.198,75.3784 383.497,79.4888 385.796,79.5229 388.095,80.0815 390.394,74.999 392.693,75.2271 394.992,78.4624 397.291,82.3174 399.59,83.2339 401.889,81.3369 404.188,74.1191 406.487,71.3711 408.786,76.9619 411.085,72.1763 413.384,70.6211 415.683,67.1035 417.981,69.1782 420.281,71.959 422.58,71.9551 424.878,71.5923 427.178,73.3447 429.477,71.5244 431.775,67.9233 434.074,74.439 436.374,75.2939 438.672,76.9487 440.971,78.3584 443.271,73.1006 445.569,70.3809 447.868,65.8872 450.167,70.5737 452.466,72.0537 454.765,72.0317 457.064,68.6372 459.363,69.0908 461.662,72.5063 463.961,71.188 466.26,69.2905 468.559,64.2061 470.858,64.9224 473.157,58.4951 475.456,60.7749 477.755,60.4194 480.054,54.2734 482.353,56.9688 484.652,55.0708 486.951,52.9316 489.25,56.7021 491.549,60.2153 493.848,61.6831 496.146,63.2212 498.446,61.5391 500.745,56.4893 503.043,59.8071 505.342,62.7451 507.642,63.1904 509.94,66.9741 512.239,70.7393 514.539,72.5933 516.837,70.8916 519.136,69.4697 521.435,70.1538 523.734,70.9624 526.033,70.2007 528.332,70.3662 530.631,69.0356 532.93,66.2749 535.229,69.394 537.528,74.0205 539.827,74.418 542.126,78.9004 544.425,73.3774 546.724,71.4961 549.023,70.7124 551.322,69.8164 553.621,70.7939 555.92,70.6323 558.219,72.8584 560.518,70.8594 562.817,74.6021 565.116,77.3105 567.415,70.9692 569.714,65.7529 572.013,66.3325 574.312,65.4414 576.61,60.77 578.91,60.4707 581.208,60.1396 583.507,61.6362 585.807,62.5566 588.105,64.7871 590.404,66.5342 592.703,65.958 595.002,65.8745 597.301,62.5635 599.6,62.2183 601.899,61.0464 604.198,53.2036 606.497,48.7754 608.796,51.6523 611.095,49.8491 613.394,50.896 615.693,51.1387 617.992,51.0596 620.291,54.0166 622.59,53.9604 624.889,54.6523 627.188,58.0947 629.487,54.0308 631.786,53.5806 634.085,55.5073 636.384,54.7188 638.683,56.8555 640.982,56.9365 643.281,57.6748 645.58,59.8662 647.879,61.168 650.178,63.9141 652.477,63.7671 654.775,67.3345 657.075,65.8574 659.374,66.8447 661.672,68.23 663.971,72.3359 666.271,72.0093 668.569,68.9912 670.868,72.8643 673.167,68.291 675.466,67.4297 677.765,64.269 680.064,65.8604 682.363,65.417 684.662,65.521 686.961,69.1758 689.26,69.0239 691.559,64.3965 693.858,67.4189 696.157,68.0259 698.456,67.1104 700.755,70.8599 703.054,71.6133 705.353,74.9829 707.652,79.0781 709.951,83.4355 712.25,85.6802 714.549,81.3867 716.848,82.3564 719.147,83.7148 721.446,81.4785 723.745,79.7363 726.043,79.2861 728.343,81.2744 730.642,79.5259 732.94,79.5464 735.24,79.9131 737.539,80.9741 739.837,81.7222 742.136,85.0405 744.436,84.5288 746.734,84.8291 749.033,88.9131 751.333,90.4614 753.631,98.2759 755.93,96.354 758.229,93.2681 760.528,95.9507 762.827,96.5625 765.126,93.7808 767.425,92.2954 769.724,92.5508 772.023,93.5386 774.322,94.2451 776.621,90.5508 778.92,86.437 781.219,82.0806 783.518,76.0356 785.817,79.0327 788.116,75.4214 790.415,78.7812 792.714,77.0015 795.013,77.7485 797.312,77.6157 799.611,78.3276 801.91,78.2769 804.208,81.3911 806.507,82.4214 808.807,85.1777 811.105,86.6138 813.404,83.5283 815.704,81.0845 818.002,86.0415 820.301,84.2788 822.6,87.772 824.899,91.7144 827.198,93.5967 829.497,93.7461 831.796,94.4067 834.095,101.005 836.394,103.927 838.693,102.696 840.992,101.781 843.291,101.107 845.59,98.9619 847.889,98.1567 850.188,97.7183 852.487,104.224 854.786,105.078 857.085,103.835 859.384,103.164 861.683,99.7085 863.982,93.4194 866.281,90.7295 868.58,94.1289 870.879,93.0239 873.178,92.312 875.477,92.0386 877.775,90.7036 880.075,83.9375 882.374,86.6494 884.672,85.98 886.972,86.7915 889.271,80.3291 891.569,83.6626 893.869,85.5684 896.167,85.6123 898.466,86.4761 900.765,90.5005 903.064,89.1587 905.363,86.6265 907.662,85.8379 909.961,87.3242 912.26,85.4399 914.559,81.2852 916.858,82.0283 919.157,86.8887 921.456,81.0591 923.755,79.5425 926.054,80.7593 928.353,76.0981 930.652,76.3589 932.951,75.5703 935.25,74.9536 937.549,77.6362 939.848,77.8926 942.147,79.52 944.446,81.3994 946.745,83.6558 949.044,80.2559 951.343,82.9917 953.642,88.5474 955.94,87.2651 958.24,87.4849 960.539,89.585 962.837,89.3999 965.137,88.7988 967.436,85.123 969.734,82.2036 972.033,79.729 974.333,78.334 976.631,75.8149 978.93,77.3066 981.229,78.5439 983.528,81.8135 985.827,81.8174 988.126,75.8418 990.425,72.3711 992.724,71.8521 995.023,71.3232 997.322,68.4609 999.621,66.3833 1001.92,66.0874 1004.22,67.3662 1006.52,66.2314 1008.82,66.5835 1011.12,65.147 1013.42,64.7876 1015.71,63.8569 1018.01,60.2764 1020.31,58.8447 1022.61,63.7451 1024.91,60.1479 1027.21,58.0532 1029.51,54.8887 1031.81,54.0791 1034.11,49.7158 1036.4,53.1851 1038.7,58.4199 1041,62.4355 1043.3,59.9302 1045.6,66.2344 1047.9,64.833 1050.2,63.3716 1052.5,60.5649 1054.8,65.5352 1057.1,64.4595 1059.39,61.4092 1061.69,59.8813 1063.99,53.4414 1066.29,53.0415 1068.59,53.4531 1070.89,59.7012 1073.19,63.605 1075.49,59.3262 1077.79,58.1045 1080.08,53.0474 1082.38,54.7466 1084.68,53.7695 1086.98,52.4741 1089.28,53.2715 1091.58,54.3999 1093.88,53.5483 1096.18,53.5566 1098.48,52.7739 1100.78,55.1899 1103.07,62.123 1105.37,61.5278 1107.67,58.7563 1109.97,59.21 1112.27,55.5034 1114.57,57.2837 1116.87,55.8535 1119.17,58.1001 1121.47,58.8389 1123.77,56.0713 1126.06,52.7627 1128.36,50.5039 1130.66,48.3867 1132.96,46.7026 1135.26,45.1943 1137.56,42.811 1139.86,43.3574 1142.16,51 1144.46,54.4316 1146.75,57.4741 1149.05,58.0278 1151.35,58.7148 1153.65,60.0732 1155.95,63.564 1158.25,62.1597 1160.55,57.4541 1162.85,60.8218 1165.15,61.5337 1167.45,59.4814 1169.74,61.9741 1172.04,66.356 1174.34,63.3911 1176.64,68.8521 1178.94,69.1357 1181.24,64.9868 1183.54,67.2544 1185.84,70.2568 1188.14,65.583 1190.44,71.0127 1192.73,68.248 1195.03,68.5098 1197.33,64.4277 1199.63,64.3032 1201.93,66.1631 1204.23,67.8501 1206.53,67.6436 1208.83,68.0254 1211.13,67.291 1213.43,66.0347 1215.72,67.48 1218.02,69.3164 1220.32,68.3623 1222.62,67.417 1224.92,69.9917 1227.22,68.2603 1229.52,67.5322 1231.82,70.6807 1234.12,72.813 1236.42,76.228 1238.71,79.1826 1241.01,75.749 1243.31,77.7246 1245.61,75.8193 1247.91,74.6895 1250.21,71.7549 1252.51,70.5664 1254.81,71.4531 1257.11,71.021 1259.4,65.2793 1261.7,64.8569 1264,64.3032 1266.3,58.9995 1268.6,56.7505 1270.9,58.5093 1273.2,58.644 1275.5,57.3257 1277.8,60.5034 1280.1,60.8247 1282.39,60.0977 1284.69,57.8052 1286.99,57.9766 1289.29,51.5581 1291.59,50.7217 1293.89,49.8711 1296.19,50.4272 1298.49,52.314 1300.79,57.3828 1303.08,59.2974 1305.38,60.3975 1307.68,58.4722 1309.98,54.5005 1312.28,62.7207 1314.58,54.3638 1316.88,49.2109 1319.18,51.3965 1321.48,50.0625 1323.78,45.7368 1326.07,48.7852 1328.37,49.1284 1330.67,52.5488 1332.97,49.9546 1335.27,47.9038 1337.57,50.2666 1339.87,48.3364 1342.17,50.4287"/>
  </g>
  <clipPath id="cp001483536">
   <polygon points="0,536 1483,536 1483,0 0,0"/>
  </clipPath>
  <g clip-path="url(#cp001483536)">
   <polygon fill="#ffffff" shape-rendering="crispEdges" points="1155.17,88.7275 1337.17,88.7275 1337.17,45.2266 1155.17,45.2266"/>
   <polyline stroke-linecap="square" stroke="#262626" stroke-width="0.5" stroke-dasharray="16,0" fill="none" stroke-linejoin="miter" points="1155.17,88.7275 1337.17,88.7275"/>
   <polyline stroke-linecap="square" stroke="#262626" stroke-width="0.5" stroke-dasharray="16,0" fill="none" stroke-linejoin="miter" points="1155.17,45.2266 1337.17,45.2266"/>
   <polyline stroke-linecap="square" stroke="#262626" stroke-width="0.5" stroke-dasharray="16,0" fill="none" stroke-linejoin="miter" points="1155.17,88.7275 1155.17,45.2266"/>
   <polyline stroke-linecap="square" stroke="#262626" stroke-width="0.5" stroke-dasharray="16,0" fill="none" stroke-linejoin="miter" points="1337.17,88.7275 1337.17,45.2266"/>
   <polyline stroke-linecap="butt" stroke="#0071bc" stroke-width="4" fill="none" stroke-linejoin="round" points="1157.67,56.7271 1170.17,56.7271"/>
   <g transform="translate(1172.67,65.7269) rotate(-0,-0,-9)" font-family="FreeSans" font-size="23.4" font-weight="normal" xml:space="preserve" font-style="normal">
    <text x="0 15 23 31 43 51 57 64 76 84 90 102 107 119 131 143 149 " y="-0" fill="rgb(0,0,0)">Error for clock 1</text>
   </g>
   <polyline stroke-linecap="butt" stroke="#d85218" stroke-width="4" fill="none" stroke-linejoin="round" points="1157.67,77.2271 1170.17,77.2271"/>
   <g transform="translate(1172.67,86.2271) rotate(-0,-0,-9)" font-family="FreeSans" font-size="23.4" font-weight="normal" xml:space="preserve" font-style="normal">
    <text x="0 15 23 31 43 51 57 64 76 84 90 102 107 119 131 143 149 " y="-0" fill="rgb(0,0,0)">Error for clock 2</text>
   </g>
  </g>
 </g>
</svg>
