<?xml version='1.0' encoding='UTF-8' standalone='no'?>
<svg xmlns="http://www.w3.org/2000/svg" height="748pt" viewBox="0 0 1483 748" width="1483pt" xmlns:xlink="http://www.w3.org/1999/xlink">
 <title>Figure 1</title>
 <desc>
Creator: GL2PS 1.4.2, (C) 1999-2020 C. Geuzaine
For: Octave
CreationDate: Tue Jul  4 09:14:21 2023
</desc>
 <defs/>
 <polygon fill="#ffffff" points="0,0 1483,0 1483,748 0,748"/>
 <g>
  <polygon fill="#ffffff" shape-rendering="crispEdges" points="0,748 1483,748 1483,0 0,0"/>
  <clipPath id="cp001483748">
   <polygon points="0,748 1483,748 1483,0 0,0"/>
  </clipPath>
  <g clip-path="url(#cp001483748)">
   <polygon fill="#ffffff" shape-rendering="crispEdges" points="192.797,314.911 1342.17,314.911 1342.17,85.2402 192.797,85.2402"/>
   <polyline fill="none" stroke-linejoin="miter" stroke-width="0.5" stroke="#262626" stroke-dasharray="16,0" stroke-linecap="butt" stroke-opacity="0.15" points="192.797,314.911 192.797,85.2402"/>
   <polyline fill="none" stroke-linejoin="miter" stroke-width="0.5" stroke="#262626" stroke-dasharray="16,0" stroke-linecap="butt" stroke-opacity="0.15" points="422.671,314.911 422.671,85.2402"/>
   <polyline fill="none" stroke-linejoin="miter" stroke-width="0.5" stroke="#262626" stroke-dasharray="16,0" stroke-linecap="butt" stroke-opacity="0.15" points="652.545,314.911 652.545,85.2402"/>
   <polyline fill="none" stroke-linejoin="miter" stroke-width="0.5" stroke="#262626" stroke-dasharray="16,0" stroke-linecap="butt" stroke-opacity="0.15" points="882.419,314.911 882.419,85.2402"/>
   <polyline fill="none" stroke-linejoin="miter" stroke-width="0.5" stroke="#262626" stroke-dasharray="16,0" stroke-linecap="butt" stroke-opacity="0.15" points="1112.29,314.911 1112.29,85.2402"/>
   <polyline fill="none" stroke-linejoin="miter" stroke-width="0.5" stroke="#262626" stroke-dasharray="16,0" stroke-linecap="butt" stroke-opacity="0.15" points="1342.17,314.911 1342.17,85.2402"/>
   <polyline fill="none" stroke-linejoin="miter" stroke-width="0.5" stroke="#262626" stroke-linecap="butt" points="192.797,314.911 192.797,303.434"/>
   <polyline fill="none" stroke-linejoin="miter" stroke-width="0.5" stroke="#262626" stroke-linecap="butt" points="192.797,85.2402 192.797,96.7178"/>
   <polyline fill="none" stroke-linejoin="miter" stroke-width="0.5" stroke="#262626" stroke-linecap="butt" points="422.671,314.911 422.671,303.434"/>
   <polyline fill="none" stroke-linejoin="miter" stroke-width="0.5" stroke="#262626" stroke-linecap="butt" points="422.671,85.2402 422.671,96.7178"/>
   <polyline fill="none" stroke-linejoin="miter" stroke-width="0.5" stroke="#262626" stroke-linecap="butt" points="652.545,314.911 652.545,303.434"/>
   <polyline fill="none" stroke-linejoin="miter" stroke-width="0.5" stroke="#262626" stroke-linecap="butt" points="652.545,85.2402 652.545,96.7178"/>
   <polyline fill="none" stroke-linejoin="miter" stroke-width="0.5" stroke="#262626" stroke-linecap="butt" points="882.419,314.911 882.419,303.434"/>
   <polyline fill="none" stroke-linejoin="miter" stroke-width="0.5" stroke="#262626" stroke-linecap="butt" points="882.419,85.2402 882.419,96.7178"/>
   <polyline fill="none" stroke-linejoin="miter" stroke-width="0.5" stroke="#262626" stroke-linecap="butt" points="1112.29,314.911 1112.29,303.434"/>
   <polyline fill="none" stroke-linejoin="miter" stroke-width="0.5" stroke="#262626" stroke-linecap="butt" points="1112.29,85.2402 1112.29,96.7178"/>
   <polyline fill="none" stroke-linejoin="miter" stroke-width="0.5" stroke="#262626" stroke-linecap="butt" points="1342.17,314.911 1342.17,303.434"/>
   <polyline fill="none" stroke-linejoin="miter" stroke-width="0.5" stroke="#262626" stroke-linecap="butt" points="1342.17,85.2402 1342.17,96.7178"/>
   <g xml:space="preserve" font-family="FreeSans" font-weight="normal" font-size="26" transform="translate(185.798,353.383) rotate(-0,7,-19)" font-style="normal">
    <text y="-0" fill="rgb(38,38,38)" x="0 ">0</text>
   </g>
   <g xml:space="preserve" font-family="FreeSans" font-weight="normal" font-size="26" transform="translate(401.672,353.383) rotate(-0,21,-19)" font-style="normal">
    <text y="-0" fill="rgb(38,38,38)" x="0 14 28 ">200</text>
   </g>
   <g xml:space="preserve" font-family="FreeSans" font-weight="normal" font-size="26" transform="translate(631.545,353.383) rotate(-0,21,-19)" font-style="normal">
    <text y="-0" fill="rgb(38,38,38)" x="0 14 28 ">400</text>
   </g>
   <g xml:space="preserve" font-family="FreeSans" font-weight="normal" font-size="26" transform="translate(861.419,353.383) rotate(-0,21,-19)" font-style="normal">
    <text y="-0" fill="rgb(38,38,38)" x="0 14 28 ">600</text>
   </g>
   <g xml:space="preserve" font-family="FreeSans" font-weight="normal" font-size="26" transform="translate(1091.29,353.383) rotate(-0,21,-19)" font-style="normal">
    <text y="-0" fill="rgb(38,38,38)" x="0 14 28 ">800</text>
   </g>
   <g xml:space="preserve" font-family="FreeSans" font-weight="normal" font-size="26" transform="translate(1314.17,353.383) rotate(-0,28,-19)" font-style="normal">
    <text y="-0" fill="rgb(38,38,38)" x="0 14 28 42 ">1000</text>
   </g>
   <polyline fill="none" stroke-linejoin="miter" stroke-width="0.5" stroke="#262626" stroke-dasharray="16,0" stroke-linecap="butt" stroke-opacity="0.15" points="192.797,314.911 1342.17,314.911"/>
   <polyline fill="none" stroke-linejoin="miter" stroke-width="0.5" stroke="#262626" stroke-dasharray="16,0" stroke-linecap="butt" stroke-opacity="0.15" points="192.797,282.101 1342.17,282.101"/>
   <polyline fill="none" stroke-linejoin="miter" stroke-width="0.5" stroke="#262626" stroke-dasharray="16,0" stroke-linecap="butt" stroke-opacity="0.15" points="192.797,249.291 1342.17,249.291"/>
   <polyline fill="none" stroke-linejoin="miter" stroke-width="0.5" stroke="#262626" stroke-dasharray="16,0" stroke-linecap="butt" stroke-opacity="0.15" points="192.797,216.48 1342.17,216.48"/>
   <polyline fill="none" stroke-linejoin="miter" stroke-width="0.5" stroke="#262626" stroke-dasharray="16,0" stroke-linecap="butt" stroke-opacity="0.15" points="192.797,183.67 1342.17,183.67"/>
   <polyline fill="none" stroke-linejoin="miter" stroke-width="0.5" stroke="#262626" stroke-dasharray="16,0" stroke-linecap="butt" stroke-opacity="0.15" points="192.797,150.86 1342.17,150.86"/>
   <polyline fill="none" stroke-linejoin="miter" stroke-width="0.5" stroke="#262626" stroke-dasharray="16,0" stroke-linecap="butt" stroke-opacity="0.15" points="192.797,118.05 1342.17,118.05"/>
   <polyline fill="none" stroke-linejoin="miter" stroke-width="0.5" stroke="#262626" stroke-dasharray="16,0" stroke-linecap="butt" stroke-opacity="0.15" points="192.797,85.2402 1342.17,85.2402"/>
   <polyline fill="none" stroke-linejoin="miter" stroke-width="0.5" stroke="#262626" stroke-linecap="butt" points="192.797,314.911 204.295,314.911"/>
   <polyline fill="none" stroke-linejoin="miter" stroke-width="0.5" stroke="#262626" stroke-linecap="butt" points="1342.17,314.911 1330.67,314.911"/>
   <polyline fill="none" stroke-linejoin="miter" stroke-width="0.5" stroke="#262626" stroke-linecap="butt" points="192.797,282.101 204.295,282.101"/>
   <polyline fill="none" stroke-linejoin="miter" stroke-width="0.5" stroke="#262626" stroke-linecap="butt" points="1342.17,282.101 1330.67,282.101"/>
   <polyline fill="none" stroke-linejoin="miter" stroke-width="0.5" stroke="#262626" stroke-linecap="butt" points="192.797,249.291 204.295,249.291"/>
   <polyline fill="none" stroke-linejoin="miter" stroke-width="0.5" stroke="#262626" stroke-linecap="butt" points="1342.17,249.291 1330.67,249.291"/>
   <polyline fill="none" stroke-linejoin="miter" stroke-width="0.5" stroke="#262626" stroke-linecap="butt" points="192.797,216.48 204.295,216.48"/>
   <polyline fill="none" stroke-linejoin="miter" stroke-width="0.5" stroke="#262626" stroke-linecap="butt" points="1342.17,216.48 1330.67,216.48"/>
   <polyline fill="none" stroke-linejoin="miter" stroke-width="0.5" stroke="#262626" stroke-linecap="butt" points="192.797,183.67 204.295,183.67"/>
   <polyline fill="none" stroke-linejoin="miter" stroke-width="0.5" stroke="#262626" stroke-linecap="butt" points="1342.17,183.67 1330.67,183.67"/>
   <polyline fill="none" stroke-linejoin="miter" stroke-width="0.5" stroke="#262626" stroke-linecap="butt" points="192.797,150.86 204.295,150.86"/>
   <polyline fill="none" stroke-linejoin="miter" stroke-width="0.5" stroke="#262626" stroke-linecap="butt" points="1342.17,150.86 1330.67,150.86"/>
   <polyline fill="none" stroke-linejoin="miter" stroke-width="0.5" stroke="#262626" stroke-linecap="butt" points="192.797,118.05 204.295,118.05"/>
   <polyline fill="none" stroke-linejoin="miter" stroke-width="0.5" stroke="#262626" stroke-linecap="butt" points="1342.17,118.05 1330.67,118.05"/>
   <polyline fill="none" stroke-linejoin="miter" stroke-width="0.5" stroke="#262626" stroke-linecap="butt" points="192.797,85.2402 204.295,85.2402"/>
   <polyline fill="none" stroke-linejoin="miter" stroke-width="0.5" stroke="#262626" stroke-linecap="butt" points="1342.17,85.2402 1330.67,85.2402"/>
   <g xml:space="preserve" font-family="FreeSans" font-weight="normal" font-size="26" transform="translate(78.7933,324.411) rotate(-0,101,-9.5)" font-style="normal">
    <text y="-0" fill="rgb(38,38,38)" x="0 9 23 30 44 58 73 87 ">-3.5e+07</text>
   </g>
   <g xml:space="preserve" font-family="FreeSans" font-weight="normal" font-size="26" transform="translate(99.7933,291.601) rotate(-0,80,-9.5)" font-style="normal">
    <text y="-0" fill="rgb(38,38,38)" x="0 9 23 37 52 66 ">-3e+07</text>
   </g>
   <g xml:space="preserve" font-family="FreeSans" font-weight="normal" font-size="26" transform="translate(78.7933,258.791) rotate(-0,101,-9.5)" font-style="normal">
    <text y="-0" fill="rgb(38,38,38)" x="0 9 23 30 44 58 73 87 ">-2.5e+07</text>
   </g>
   <g xml:space="preserve" font-family="FreeSans" font-weight="normal" font-size="26" transform="translate(99.7933,225.981) rotate(-0,80,-9.5)" font-style="normal">
    <text y="-0" fill="rgb(38,38,38)" x="0 9 23 37 52 66 ">-2e+07</text>
   </g>
   <g xml:space="preserve" font-family="FreeSans" font-weight="normal" font-size="26" transform="translate(78.7933,193.17) rotate(-0,101,-9.5)" font-style="normal">
    <text y="-0" fill="rgb(38,38,38)" x="0 9 23 30 44 58 73 87 ">-1.5e+07</text>
   </g>
   <g xml:space="preserve" font-family="FreeSans" font-weight="normal" font-size="26" transform="translate(99.7933,160.36) rotate(-0,80,-9.5)" font-style="normal">
    <text y="-0" fill="rgb(38,38,38)" x="0 9 23 37 52 66 ">-1e+07</text>
   </g>
   <g xml:space="preserve" font-family="FreeSans" font-weight="normal" font-size="26" transform="translate(99.7933,127.55) rotate(-0,80,-9.5)" font-style="normal">
    <text y="-0" fill="rgb(38,38,38)" x="0 9 23 37 52 66 ">-5e+06</text>
   </g>
   <g xml:space="preserve" font-family="FreeSans" font-weight="normal" font-size="26" transform="translate(165.793,94.7403) rotate(-0,14,-9.5)" font-style="normal">
    <text y="-0" fill="rgb(38,38,38)" x="0 ">0</text>
   </g>
   <polyline fill="none" stroke-linejoin="miter" stroke-width="0.5" stroke="#262626" stroke-dasharray="16,0" stroke-linecap="square" points="192.797,314.911 1342.17,314.911"/>
   <polyline fill="none" stroke-linejoin="miter" stroke-width="0.5" stroke="#262626" stroke-dasharray="16,0" stroke-linecap="square" points="192.797,85.2402 1342.17,85.2402"/>
   <polyline fill="none" stroke-linejoin="miter" stroke-width="0.5" stroke="#262626" stroke-dasharray="16,0" stroke-linecap="square" points="192.797,314.911 192.797,85.2402"/>
   <polyline fill="none" stroke-linejoin="miter" stroke-width="0.5" stroke="#262626" stroke-dasharray="16,0" stroke-linecap="square" points="1342.17,314.911 1342.17,85.2402"/>
   <g xml:space="preserve" font-family="FreeSans" font-weight="bold" font-size="28.6" transform="translate(410.482,75.2403) rotate(-0,357,0)" font-style="normal">
    <text y="-6" fill="rgb(0,0,0)" x="0 21 29 39 49 66 77 94 112 128 145 153 163 181 191 201 217 234 244 254 262 280 290 298 308 325 342 350 366 374 390 398 416 432 448 464 472 482 498 506 524 540 556 564 580 588 598 606 622 630 648 664 680 688 704 ">Difference (offset) of the 2 clocks (clock 0 - clock 1)</text>
   </g>
   <g xml:space="preserve" font-family="FreeSans" font-weight="normal" font-size="28.6" transform="translate(36.2933,200.076) rotate(-90,37.5,0)" font-style="normal">
    <text y="-0" fill="rgb(38,38,38)" x="0 22 30 38 52 67 ">Offset</text>
   </g>
   <polyline fill="none" stroke-linejoin="round" stroke-width="4" stroke="#0071bc" stroke-linecap="butt" points="215.672,89.5479 217.971,89.9863 220.27,90.417 222.569,90.8472 224.868,91.2808 227.167,91.7119 229.466,92.1406 231.765,92.5625 234.064,92.9819 236.363,93.4019 238.662,93.8257 240.961,94.2427 243.26,94.646 245.559,95.0522 247.858,95.4575 250.157,95.8545 252.456,96.2461 254.755,96.6455 257.054,97.0425 259.353,97.436 261.652,97.8252 263.951,98.2207 266.25,98.6235 268.549,99.0308 270.848,99.4414 273.146,99.8545 275.445,100.277 277.745,100.704 280.043,101.135 282.342,101.576 284.642,102.02 286.94,102.462 289.239,102.902 291.538,103.349 293.837,103.797 296.136,104.248 298.435,104.699 300.734,105.148 303.033,105.595 305.332,106.047 307.631,106.498 309.93,106.947 312.229,107.398 314.528,107.855 316.827,108.307 319.126,108.752 321.425,109.193 323.724,109.632 326.023,110.072 328.322,110.503 330.621,110.938 332.92,111.375 335.219,111.816 337.518,112.255 339.817,112.696 342.116,113.131 344.415,113.569 346.713,114.001 349.013,114.433 351.312,114.854 353.61,115.277 355.91,115.7 358.208,116.128 360.507,116.55 362.806,116.962 365.105,117.374 367.404,117.784 369.703,118.185 372.002,118.585 374.301,118.994 376.6,119.4 378.899,119.811 381.198,120.226 383.497,120.634 385.796,121.045 388.095,121.457 390.394,121.87 392.693,122.289 394.992,122.706 397.291,123.117 399.59,123.52 401.889,123.92 404.188,124.321 406.487,124.732 408.786,125.141 411.085,125.554 413.384,125.975 415.683,126.4 417.981,126.826 420.281,127.25 422.58,127.674 424.878,128.096 427.178,128.517 429.477,128.938 431.775,129.361 434.074,129.782 436.374,130.201 438.672,130.629 440.971,131.062 443.271,131.486 445.569,131.909 447.868,132.333 450.167,132.753 452.466,133.167 454.765,133.577 457.064,133.993 459.363,134.416 461.662,134.837 463.961,135.251 466.26,135.666 468.559,136.083 470.858,136.5 473.157,136.913 475.456,137.33 477.755,137.749 480.054,138.177 482.353,138.614 484.652,139.047 486.951,139.486 489.25,139.926 491.549,140.372 493.848,140.813 496.146,141.252 498.446,141.693 500.745,142.138 503.043,142.588 505.342,143.039 507.642,143.486 509.94,143.936 512.239,144.381 514.539,144.817 516.837,145.261 519.136,145.712 521.435,146.167 523.734,146.623 526.033,147.081 528.332,147.538 530.631,147.99 532.93,148.445 535.229,148.899 537.528,149.344 539.827,149.78 542.126,150.212 544.425,150.638 546.724,151.068 549.023,151.505 551.322,151.941 553.621,152.375 555.92,152.804 558.219,153.236 560.518,153.666 562.817,154.093 565.116,154.521 567.415,154.958 569.714,155.399 572.013,155.843 574.312,156.286 576.61,156.73 578.91,157.176 581.208,157.625 583.507,158.075 585.807,158.509 588.105,158.936 590.404,159.358 592.703,159.777 595.002,160.198 597.301,160.618 599.6,161.034 601.899,161.45 604.198,161.87 606.497,162.302 608.796,162.734 611.095,163.169 613.394,163.6 615.693,164.024 617.992,164.446 620.291,164.863 622.59,165.287 624.889,165.707 627.188,166.121 629.487,166.527 631.786,166.939 634.085,167.353 636.384,167.768 638.683,168.187 640.982,168.604 643.281,169.024 645.58,169.444 647.879,169.854 650.178,170.266 652.477,170.68 654.775,171.087 657.075,171.493 659.374,171.903 661.672,172.312 663.971,172.719 666.271,173.125 668.569,173.542 670.868,173.96 673.167,174.377 675.466,174.801 677.765,175.232 680.064,175.662 682.363,176.089 684.662,176.519 686.961,176.942 689.26,177.356 691.559,177.782 693.858,178.207 696.157,178.631 698.456,179.057 700.755,179.483 703.054,179.902 705.353,180.321 707.652,180.739 709.951,181.155 712.25,181.571 714.549,181.986 716.848,182.393 719.147,182.796 721.446,183.203 723.745,183.62 726.043,184.04 728.343,184.463 730.642,184.891 732.94,185.325 735.24,185.762 737.539,186.195 739.837,186.628 742.136,187.062 744.436,187.493 746.734,187.919 749.033,188.342 751.333,188.76 753.631,189.171 755.93,189.579 758.229,189.991 760.528,190.401 762.827,190.808 765.126,191.211 767.425,191.614 769.724,192.021 772.023,192.43 774.322,192.836 776.621,193.237 778.92,193.646 781.219,194.062 783.518,194.486 785.817,194.917 788.116,195.357 790.415,195.801 792.714,196.247 795.013,196.7 797.312,197.155 799.611,197.613 801.91,198.073 804.208,198.539 806.507,199.004 808.807,199.469 811.105,199.921 813.404,200.382 815.704,200.846 818.002,201.302 820.301,201.759 822.6,202.215 824.899,202.664 827.198,203.108 829.497,203.549 831.796,203.995 834.095,204.432 836.394,204.864 838.693,205.297 840.992,205.732 843.291,206.159 845.59,206.591 847.889,207.024 850.188,207.459 852.487,207.889 854.786,208.318 857.085,208.74 859.384,209.161 861.683,209.591 863.982,210.028 866.281,210.472 868.58,210.919 870.879,211.366 873.178,211.813 875.477,212.256 877.775,212.701 880.075,213.146 882.374,213.604 884.672,214.06 886.972,214.519 889.271,214.978 891.569,215.433 893.869,215.877 896.167,216.319 898.466,216.762 900.765,217.196 903.064,217.629 905.363,218.069 907.662,218.506 909.961,218.945 912.26,219.38 914.559,219.817 916.858,220.255 919.157,220.686 921.456,221.11 923.755,221.541 926.054,221.975 928.353,222.416 930.652,222.859 932.951,223.303 935.25,223.744 937.549,224.184 939.848,224.619 942.147,225.049 944.446,225.479 946.745,225.906 949.044,226.338 951.343,226.766 953.642,227.191 955.94,227.614 958.24,228.037 960.539,228.455 962.837,228.868 965.137,229.287 967.436,229.705 969.734,230.126 972.033,230.554 974.333,230.988 976.631,231.428 978.93,231.865 981.229,232.299 983.528,232.73 985.827,233.16 988.126,233.593 990.425,234.032 992.724,234.471 995.023,234.904 997.322,235.339 999.621,235.779 1001.92,236.215 1004.22,236.654 1006.52,237.091 1008.82,237.53 1011.12,237.963 1013.42,238.394 1015.71,238.831 1018.01,239.271 1020.31,239.716 1022.61,240.155 1024.91,240.595 1027.21,241.043 1029.51,241.491 1031.81,241.941 1034.11,242.399 1036.4,242.857 1038.7,243.309 1041,243.752 1043.3,244.191 1045.6,244.632 1047.9,245.069 1050.2,245.505 1052.5,245.938 1054.8,246.373 1057.1,246.81 1059.39,247.246 1061.69,247.684 1063.99,248.125 1066.29,248.576 1068.59,249.021 1070.89,249.457 1073.19,249.886 1075.49,250.315 1077.79,250.749 1080.08,251.187 1082.38,251.626 1084.68,252.066 1086.98,252.51 1089.28,252.956 1091.58,253.402 1093.88,253.845 1096.18,254.288 1098.48,254.731 1100.78,255.175 1103.07,255.611 1105.37,256.044 1107.67,256.478 1109.97,256.908 1112.27,257.341 1114.57,257.773 1116.87,258.204 1119.17,258.638 1121.47,259.071 1123.77,259.507 1126.06,259.942 1128.36,260.384 1130.66,260.825 1132.96,261.265 1135.26,261.708 1137.56,262.155 1139.86,262.605 1142.16,263.044 1144.46,263.474 1146.75,263.902 1149.05,264.332 1151.35,264.758 1153.65,265.183 1155.95,265.604 1158.25,266.018 1160.55,266.439 1162.85,266.863 1165.15,267.286 1167.45,267.709 1169.74,268.133 1172.04,268.555 1174.34,268.973 1176.64,269.389 1178.94,269.802 1181.24,270.219 1183.54,270.631 1185.84,271.038 1188.14,271.437 1190.44,271.831 1192.73,272.224 1195.03,272.624 1197.33,273.018 1199.63,273.419 1201.93,273.822 1204.23,274.223 1206.53,274.618 1208.83,275.012 1211.13,275.414 1213.43,275.821 1215.72,276.23 1218.02,276.633 1220.32,277.036 1222.62,277.438 1224.92,277.841 1227.22,278.239 1229.52,278.638 1231.82,279.036 1234.12,279.431 1236.42,279.82 1238.71,280.203 1241.01,280.586 1243.31,280.976 1245.61,281.36 1247.91,281.745 1250.21,282.131 1252.51,282.518 1254.81,282.903 1257.11,283.28 1259.4,283.659 1261.7,284.037 1264,284.414 1266.3,284.789 1268.6,285.171 1270.9,285.555 1273.2,285.938 1275.5,286.323 1277.8,286.707 1280.1,287.093 1282.39,287.477 1284.69,287.863 1286.99,288.25 1289.29,288.645 1291.59,289.048 1293.89,289.451 1296.19,289.858 1298.49,290.268 1300.79,290.675 1303.08,291.076 1305.38,291.466 1307.68,291.852 1309.98,292.24 1312.28,292.632 1314.58,293.02 1316.88,293.418 1319.18,293.817 1321.48,294.222 1323.78,294.634 1326.07,295.05 1328.37,295.466 1330.67,295.876 1332.97,296.287 1335.27,296.703 1337.57,297.116 1339.87,297.528 1342.17,297.944"/>
   <polyline fill="none" stroke-linejoin="round" stroke-width="4" stroke="#d85218" stroke-linecap="butt" points="215.672,89.5396 217.971,89.979 220.27,90.4155 222.569,90.8467 224.868,91.2788 227.167,91.7109 229.466,92.1416 231.765,92.5669 234.064,92.9844 236.363,93.4014 238.662,93.8218 240.961,94.2432 243.26,94.6523 245.559,95.0532 247.858,95.4561 250.157,95.8555 252.456,96.2476 254.755,96.6401 257.054,97.0386 259.353,97.436 261.652,97.8271 263.951,98.2188 266.25,98.6182 268.549,99.0254 270.848,99.439 273.146,99.8545 275.445,100.275 277.745,100.703 280.043,101.135 282.342,101.575 284.642,102.021 286.94,102.466 289.239,102.907 291.538,103.35 293.837,103.796 296.136,104.247 298.435,104.699 300.734,105.151 303.033,105.598 305.332,106.046 307.631,106.497 309.93,106.947 312.229,107.397 314.528,107.853 316.827,108.308 319.126,108.757 321.425,109.198 323.724,109.633 326.023,110.071 328.322,110.504 330.621,110.936 332.92,111.371 335.219,111.812 337.518,112.254 339.817,112.696 342.116,113.135 344.415,113.571 346.713,114.004 349.013,114.435 351.312,114.859 353.61,115.277 355.91,115.697 358.208,116.122 360.507,116.549 362.806,116.967 365.105,117.376 367.404,117.785 369.703,118.187 372.002,118.584 374.301,118.987 376.6,119.396 378.899,119.806 381.198,120.223 383.497,120.638 385.796,121.047 388.095,121.458 390.394,121.869 392.693,122.286 394.992,122.706 397.291,123.121 399.59,123.527 401.889,123.925 404.188,124.32 406.487,124.724 408.786,125.136 411.085,125.55 413.384,125.972 415.683,126.398 417.981,126.828 420.281,127.254 422.58,127.679 424.878,128.1 427.178,128.519 429.477,128.937 431.775,129.358 434.074,129.781 436.374,130.201 438.672,130.625 440.971,131.059 443.271,131.489 445.569,131.914 447.868,132.335 450.167,132.756 452.466,133.17 454.765,133.578 457.064,133.988 459.363,134.408 461.662,134.833 463.961,135.255 466.26,135.669 468.559,136.083 470.858,136.5 473.157,136.914 475.456,137.329 477.755,137.747 480.054,138.171 482.353,138.607 484.652,139.048 486.951,139.488 489.25,139.929 491.549,140.373 493.848,140.817 496.146,141.256 498.446,141.695 500.745,142.135 503.043,142.584 505.342,143.037 507.642,143.488 509.94,143.938 512.239,144.385 514.539,144.823 516.837,145.26 519.136,145.705 521.435,146.16 523.734,146.62 526.033,147.082 528.332,147.542 530.631,147.996 532.93,148.448 535.229,148.9 537.528,149.348 539.827,149.786 542.126,150.215 544.425,150.639 546.724,151.062 549.023,151.496 551.322,151.936 553.621,152.375 555.92,152.808 558.219,153.238 560.518,153.667 562.817,154.095 565.116,154.521 567.415,154.953 569.714,155.394 572.013,155.841 574.312,156.287 576.61,156.732 578.91,157.179 581.208,157.626 583.507,158.077 585.807,158.518 588.105,158.944 590.404,159.362 592.703,159.775 595.002,160.192 597.301,160.612 599.6,161.032 601.899,161.449 604.198,161.867 606.497,162.294 608.796,162.732 611.095,163.169 613.394,163.605 615.693,164.032 617.992,164.452 620.291,164.867 622.59,165.282 624.889,165.704 627.188,166.122 629.487,166.531 631.786,166.938 634.085,167.348 636.384,167.764 638.683,168.184 640.982,168.604 643.281,169.025 645.58,169.446 647.879,169.86 650.178,170.269 652.477,170.678 654.775,171.088 657.075,171.493 659.374,171.9 661.672,172.31 663.971,172.719 666.271,173.126 668.569,173.537 670.868,173.957 673.167,174.376 675.466,174.8 677.765,175.23 680.064,175.664 682.363,176.093 684.662,176.521 686.961,176.947 689.26,177.362 691.559,177.778 693.858,178.203 696.157,178.629 698.456,179.056 700.755,179.483 703.054,179.906 705.353,180.324 707.652,180.74 709.951,181.154 712.25,181.57 714.549,181.984 716.848,182.396 719.147,182.799 721.446,183.201 723.745,183.611 726.043,184.032 728.343,184.459 730.642,184.89 732.94,185.325 735.24,185.764 737.539,186.201 739.837,186.633 742.136,187.064 744.436,187.495 746.734,187.922 749.033,188.344 751.333,188.762 753.631,189.174 755.93,189.578 758.229,189.986 760.528,190.397 762.827,190.807 765.126,191.212 767.425,191.615 769.724,192.019 772.023,192.427 774.322,192.836 776.621,193.239 778.92,193.644 781.219,194.056 783.518,194.479 785.817,194.913 788.116,195.354 790.415,195.802 792.714,196.25 795.013,196.703 797.312,197.158 799.611,197.615 801.91,198.074 804.208,198.539 806.507,199.005 808.807,199.472 811.105,199.929 813.404,200.383 815.704,200.843 818.002,201.303 820.301,201.758 822.6,202.215 824.899,202.667 827.198,203.111 829.497,203.551 831.796,203.991 834.095,204.432 836.394,204.866 838.693,205.295 840.992,205.729 843.291,206.16 845.59,206.588 847.889,207.021 850.188,207.457 852.487,207.891 854.786,208.321 857.085,208.745 859.384,209.162 861.683,209.585 863.982,210.02 866.281,210.464 868.58,210.917 870.879,211.37 873.178,211.819 875.477,212.264 877.775,212.705 880.075,213.146 882.374,213.597 884.672,214.056 886.972,214.518 889.271,214.979 891.569,215.438 893.869,215.887 896.167,216.324 898.466,216.762 900.765,217.197 903.064,217.628 905.363,218.062 907.662,218.501 909.961,218.943 912.26,219.381 914.559,219.818 916.858,220.255 919.157,220.69 921.456,221.114 923.755,221.539 926.054,221.97 928.353,222.409 930.652,222.855 932.951,223.303 935.25,223.748 937.549,224.188 939.848,224.624 942.147,225.053 944.446,225.479 946.745,225.905 949.044,226.333 951.343,226.764 953.642,227.191 955.94,227.615 958.24,228.038 960.539,228.457 962.837,228.87 965.137,229.285 967.436,229.701 969.734,230.123 972.033,230.549 974.333,230.984 976.631,231.426 978.93,231.868 981.229,232.305 983.528,232.737 985.827,233.164 988.126,233.591 990.425,234.026 992.724,234.467 995.023,234.907 997.322,235.341 999.621,235.778 1001.92,236.216 1004.22,236.654 1006.52,237.092 1008.82,237.531 1011.12,237.966 1013.42,238.396 1015.71,238.829 1018.01,239.267 1020.31,239.712 1022.61,240.157 1024.91,240.597 1027.21,241.042 1029.51,241.49 1031.81,241.94 1034.11,242.396 1036.4,242.857 1038.7,243.314 1041,243.762 1043.3,244.197 1045.6,244.632 1047.9,245.066 1050.2,245.502 1052.5,245.936 1054.8,246.37 1057.1,246.807 1059.39,247.245 1061.69,247.684 1063.99,248.124 1066.29,248.572 1068.59,249.023 1070.89,249.465 1073.19,249.895 1075.49,250.317 1077.79,250.745 1080.08,251.18 1082.38,251.622 1084.68,252.064 1086.98,252.509 1089.28,252.956 1091.58,253.404 1093.88,253.849 1096.18,254.291 1098.48,254.732 1100.78,255.175 1103.07,255.615 1105.37,256.046 1107.67,256.477 1109.97,256.908 1112.27,257.337 1114.57,257.771 1116.87,258.203 1119.17,258.636 1121.47,259.071 1123.77,259.506 1126.06,259.942 1128.36,260.381 1130.66,260.825 1132.96,261.267 1135.26,261.708 1137.56,262.154 1139.86,262.604 1142.16,263.05 1144.46,263.483 1146.75,263.907 1149.05,264.33 1151.35,264.755 1153.65,265.181 1155.95,265.603 1158.25,266.02 1160.55,266.436 1162.85,266.859 1165.15,267.284 1167.45,267.708 1169.74,268.133 1172.04,268.557 1174.34,268.977 1176.64,269.393 1178.94,269.803 1181.24,270.216 1183.54,270.631 1185.84,271.04 1188.14,271.44 1190.44,271.834 1192.73,272.224 1195.03,272.618 1197.33,273.014 1199.63,273.414 1201.93,273.818 1204.23,274.224 1206.53,274.624 1208.83,275.017 1211.13,275.411 1213.43,275.815 1215.72,276.227 1218.02,276.635 1220.32,277.04 1222.62,277.441 1224.92,277.843 1227.22,278.241 1229.52,278.638 1231.82,279.035 1234.12,279.432 1236.42,279.823 1238.71,280.207 1241.01,280.585 1243.31,280.97 1245.61,281.357 1247.91,281.744 1250.21,282.13 1252.51,282.517 1254.81,282.904 1257.11,283.285 1259.4,283.66 1261.7,284.037 1264,284.412 1266.3,284.787 1268.6,285.167 1270.9,285.552 1273.2,285.938 1275.5,286.324 1277.8,286.709 1280.1,287.093 1282.39,287.478 1284.69,287.863 1286.99,288.249 1289.29,288.641 1291.59,289.043 1293.89,289.45 1296.19,289.859 1298.49,290.271 1300.79,290.68 1303.08,291.084 1305.38,291.474 1307.68,291.855 1309.98,292.236 1312.28,292.625 1314.58,293.015 1316.88,293.411 1319.18,293.814 1321.48,294.219 1323.78,294.631 1326.07,295.05 1328.37,295.469 1330.67,295.883 1332.97,296.292 1335.27,296.702 1337.57,297.116 1339.87,297.528 1342.17,297.942"/>
  </g>
  <clipPath id="cp001483748">
   <polygon points="0,748 1483,748 1483,0 0,0"/>
  </clipPath>
  <g clip-path="url(#cp001483748)">
   <polygon fill="#ffffff" shape-rendering="crispEdges" points="1151.17,135.742 1337.17,135.742 1337.17,90.2407 1151.17,90.2407"/>
   <polyline fill="none" stroke-linejoin="miter" stroke-width="0.5" stroke="#262626" stroke-dasharray="16,0" stroke-linecap="square" points="1151.17,135.742 1337.17,135.742"/>
   <polyline fill="none" stroke-linejoin="miter" stroke-width="0.5" stroke="#262626" stroke-dasharray="16,0" stroke-linecap="square" points="1151.17,90.2407 1337.17,90.2407"/>
   <polyline fill="none" stroke-linejoin="miter" stroke-width="0.5" stroke="#262626" stroke-dasharray="16,0" stroke-linecap="square" points="1151.17,135.742 1151.17,90.2407"/>
   <polyline fill="none" stroke-linejoin="miter" stroke-width="0.5" stroke="#262626" stroke-dasharray="16,0" stroke-linecap="square" points="1337.17,135.742 1337.17,90.2407"/>
   <polyline fill="none" stroke-linejoin="round" stroke-width="4" stroke="#0071bc" stroke-linecap="butt" points="1153.67,102.241 1166.17,102.241"/>
   <g xml:space="preserve" font-family="FreeSans" font-weight="normal" font-size="23.4" transform="translate(1168.67,111.741) rotate(-0,-0,-9.5)" font-style="normal">
    <text y="-1" fill="rgb(0,0,0)" x="0 15 23 36 48 54 66 73 80 92 104 ">True offset</text>
   </g>
   <polyline fill="none" stroke-linejoin="round" stroke-width="4" stroke="#d85218" stroke-linecap="butt" points="1153.67,123.741 1166.17,123.741"/>
   <g xml:space="preserve" font-family="FreeSans" font-weight="normal" font-size="23.4" transform="translate(1168.67,133.241) rotate(-0,-0,-9.5)" font-style="normal">
    <text y="-1" fill="rgb(0,0,0)" x="0 15 27 34 39 58 71 78 90 103 109 121 128 135 147 159 ">Estimated offset</text>
   </g>
  </g>
  <clipPath id="cp001483748">
   <polygon points="0,748 1483,748 1483,0 0,0"/>
  </clipPath>
  <g clip-path="url(#cp001483748)">
   <polygon fill="#ffffff" shape-rendering="crispEdges" points="192.797,666.368 1342.17,666.368 1342.17,436.698 192.797,436.698"/>
   <polyline fill="none" stroke-linejoin="miter" stroke-width="0.5" stroke="#262626" stroke-dasharray="16,0" stroke-linecap="butt" stroke-opacity="0.15" points="192.797,666.368 192.797,436.698"/>
   <polyline fill="none" stroke-linejoin="miter" stroke-width="0.5" stroke="#262626" stroke-dasharray="16,0" stroke-linecap="butt" stroke-opacity="0.15" points="422.671,666.368 422.671,436.698"/>
   <polyline fill="none" stroke-linejoin="miter" stroke-width="0.5" stroke="#262626" stroke-dasharray="16,0" stroke-linecap="butt" stroke-opacity="0.15" points="652.545,666.368 652.545,436.698"/>
   <polyline fill="none" stroke-linejoin="miter" stroke-width="0.5" stroke="#262626" stroke-dasharray="16,0" stroke-linecap="butt" stroke-opacity="0.15" points="882.419,666.368 882.419,436.698"/>
   <polyline fill="none" stroke-linejoin="miter" stroke-width="0.5" stroke="#262626" stroke-dasharray="16,0" stroke-linecap="butt" stroke-opacity="0.15" points="1112.29,666.368 1112.29,436.698"/>
   <polyline fill="none" stroke-linejoin="miter" stroke-width="0.5" stroke="#262626" stroke-dasharray="16,0" stroke-linecap="butt" stroke-opacity="0.15" points="1342.17,666.368 1342.17,436.698"/>
   <polyline fill="none" stroke-linejoin="miter" stroke-width="0.5" stroke="#262626" stroke-linecap="butt" points="192.797,666.368 192.797,654.891"/>
   <polyline fill="none" stroke-linejoin="miter" stroke-width="0.5" stroke="#262626" stroke-linecap="butt" points="192.797,436.698 192.797,448.175"/>
   <polyline fill="none" stroke-linejoin="miter" stroke-width="0.5" stroke="#262626" stroke-linecap="butt" points="422.671,666.368 422.671,654.891"/>
   <polyline fill="none" stroke-linejoin="miter" stroke-width="0.5" stroke="#262626" stroke-linecap="butt" points="422.671,436.698 422.671,448.175"/>
   <polyline fill="none" stroke-linejoin="miter" stroke-width="0.5" stroke="#262626" stroke-linecap="butt" points="652.545,666.368 652.545,654.891"/>
   <polyline fill="none" stroke-linejoin="miter" stroke-width="0.5" stroke="#262626" stroke-linecap="butt" points="652.545,436.698 652.545,448.175"/>
   <polyline fill="none" stroke-linejoin="miter" stroke-width="0.5" stroke="#262626" stroke-linecap="butt" points="882.419,666.368 882.419,654.891"/>
   <polyline fill="none" stroke-linejoin="miter" stroke-width="0.5" stroke="#262626" stroke-linecap="butt" points="882.419,436.698 882.419,448.175"/>
   <polyline fill="none" stroke-linejoin="miter" stroke-width="0.5" stroke="#262626" stroke-linecap="butt" points="1112.29,666.368 1112.29,654.891"/>
   <polyline fill="none" stroke-linejoin="miter" stroke-width="0.5" stroke="#262626" stroke-linecap="butt" points="1112.29,436.698 1112.29,448.175"/>
   <polyline fill="none" stroke-linejoin="miter" stroke-width="0.5" stroke="#262626" stroke-linecap="butt" points="1342.17,666.368 1342.17,654.891"/>
   <polyline fill="none" stroke-linejoin="miter" stroke-width="0.5" stroke="#262626" stroke-linecap="butt" points="1342.17,436.698 1342.17,448.175"/>
   <g xml:space="preserve" font-family="FreeSans" font-weight="normal" font-size="26" transform="translate(185.798,704.84) rotate(-0,7,-19)" font-style="normal">
    <text y="-0" fill="rgb(38,38,38)" x="0 ">0</text>
   </g>
   <g xml:space="preserve" font-family="FreeSans" font-weight="normal" font-size="26" transform="translate(401.672,704.84) rotate(-0,21,-19)" font-style="normal">
    <text y="-0" fill="rgb(38,38,38)" x="0 14 28 ">200</text>
   </g>
   <g xml:space="preserve" font-family="FreeSans" font-weight="normal" font-size="26" transform="translate(631.545,704.84) rotate(-0,21,-19)" font-style="normal">
    <text y="-0" fill="rgb(38,38,38)" x="0 14 28 ">400</text>
   </g>
   <g xml:space="preserve" font-family="FreeSans" font-weight="normal" font-size="26" transform="translate(861.419,704.84) rotate(-0,21,-19)" font-style="normal">
    <text y="-0" fill="rgb(38,38,38)" x="0 14 28 ">600</text>
   </g>
   <g xml:space="preserve" font-family="FreeSans" font-weight="normal" font-size="26" transform="translate(1091.29,704.84) rotate(-0,21,-19)" font-style="normal">
    <text y="-0" fill="rgb(38,38,38)" x="0 14 28 ">800</text>
   </g>
   <g xml:space="preserve" font-family="FreeSans" font-weight="normal" font-size="26" transform="translate(1314.17,704.84) rotate(-0,28,-19)" font-style="normal">
    <text y="-0" fill="rgb(38,38,38)" x="0 14 28 42 ">1000</text>
   </g>
   <polyline fill="none" stroke-linejoin="miter" stroke-width="0.5" stroke="#262626" stroke-dasharray="16,0" stroke-linecap="butt" stroke-opacity="0.15" points="192.797,666.368 1342.17,666.368"/>
   <polyline fill="none" stroke-linejoin="miter" stroke-width="0.5" stroke="#262626" stroke-dasharray="16,0" stroke-linecap="butt" stroke-opacity="0.15" points="192.797,608.951 1342.17,608.951"/>
   <polyline fill="none" stroke-linejoin="miter" stroke-width="0.5" stroke="#262626" stroke-dasharray="16,0" stroke-linecap="butt" stroke-opacity="0.15" points="192.797,551.533 1342.17,551.533"/>
   <polyline fill="none" stroke-linejoin="miter" stroke-width="0.5" stroke="#262626" stroke-dasharray="16,0" stroke-linecap="butt" stroke-opacity="0.15" points="192.797,494.115 1342.17,494.115"/>
   <polyline fill="none" stroke-linejoin="miter" stroke-width="0.5" stroke="#262626" stroke-dasharray="16,0" stroke-linecap="butt" stroke-opacity="0.15" points="192.797,436.698 1342.17,436.698"/>
   <polyline fill="none" stroke-linejoin="miter" stroke-width="0.5" stroke="#262626" stroke-linecap="butt" points="192.797,666.368 204.295,666.368"/>
   <polyline fill="none" stroke-linejoin="miter" stroke-width="0.5" stroke="#262626" stroke-linecap="butt" points="1342.17,666.368 1330.67,666.368"/>
   <polyline fill="none" stroke-linejoin="miter" stroke-width="0.5" stroke="#262626" stroke-linecap="butt" points="192.797,608.951 204.295,608.951"/>
   <polyline fill="none" stroke-linejoin="miter" stroke-width="0.5" stroke="#262626" stroke-linecap="butt" points="1342.17,608.951 1330.67,608.951"/>
   <polyline fill="none" stroke-linejoin="miter" stroke-width="0.5" stroke="#262626" stroke-linecap="butt" points="192.797,551.533 204.295,551.533"/>
   <polyline fill="none" stroke-linejoin="miter" stroke-width="0.5" stroke="#262626" stroke-linecap="butt" points="1342.17,551.533 1330.67,551.533"/>
   <polyline fill="none" stroke-linejoin="miter" stroke-width="0.5" stroke="#262626" stroke-linecap="butt" points="192.797,494.115 204.295,494.115"/>
   <polyline fill="none" stroke-linejoin="miter" stroke-width="0.5" stroke="#262626" stroke-linecap="butt" points="1342.17,494.115 1330.67,494.115"/>
   <polyline fill="none" stroke-linejoin="miter" stroke-width="0.5" stroke="#262626" stroke-linecap="butt" points="192.797,436.698 204.295,436.698"/>
   <polyline fill="none" stroke-linejoin="miter" stroke-width="0.5" stroke="#262626" stroke-linecap="butt" points="1342.17,436.698 1330.67,436.698"/>
   <g xml:space="preserve" font-family="FreeSans" font-weight="normal" font-size="26" transform="translate(100.793,675.868) rotate(-0,79,-9.5)" font-style="normal">
    <text y="-0" fill="rgb(38,38,38)" x="0 9 23 37 51 65 ">-36000</text>
   </g>
   <g xml:space="preserve" font-family="FreeSans" font-weight="normal" font-size="26" transform="translate(100.793,618.451) rotate(-0,79,-9.5)" font-style="normal">
    <text y="-0" fill="rgb(38,38,38)" x="0 9 23 37 51 65 ">-34000</text>
   </g>
   <g xml:space="preserve" font-family="FreeSans" font-weight="normal" font-size="26" transform="translate(100.793,561.033) rotate(-0,79,-9.5)" font-style="normal">
    <text y="-0" fill="rgb(38,38,38)" x="0 9 23 37 51 65 ">-32000</text>
   </g>
   <g xml:space="preserve" font-family="FreeSans" font-weight="normal" font-size="26" transform="translate(100.793,503.615) rotate(-0,79,-9.5)" font-style="normal">
    <text y="-0" fill="rgb(38,38,38)" x="0 9 23 37 51 65 ">-30000</text>
   </g>
   <g xml:space="preserve" font-family="FreeSans" font-weight="normal" font-size="26" transform="translate(100.793,446.198) rotate(-0,79,-9.5)" font-style="normal">
    <text y="-0" fill="rgb(38,38,38)" x="0 9 23 37 51 65 ">-28000</text>
   </g>
   <polyline fill="none" stroke-linejoin="miter" stroke-width="0.5" stroke="#262626" stroke-dasharray="16,0" stroke-linecap="square" points="192.797,666.368 1342.17,666.368"/>
   <polyline fill="none" stroke-linejoin="miter" stroke-width="0.5" stroke="#262626" stroke-dasharray="16,0" stroke-linecap="square" points="192.797,436.698 1342.17,436.698"/>
   <polyline fill="none" stroke-linejoin="miter" stroke-width="0.5" stroke="#262626" stroke-dasharray="16,0" stroke-linecap="square" points="192.797,666.368 192.797,436.698"/>
   <polyline fill="none" stroke-linejoin="miter" stroke-width="0.5" stroke="#262626" stroke-dasharray="16,0" stroke-linecap="square" points="1342.17,666.368 1342.17,436.698"/>
   <g xml:space="preserve" font-family="FreeSans" font-weight="bold" font-size="28.6" transform="translate(519.982,426.698) rotate(-0,247.5,0)" font-style="normal">
    <text y="-6" fill="rgb(0,0,0)" x="0 21 29 39 49 66 77 94 112 128 145 153 163 173 181 197 213 221 232 248 258 275 285 293 311 321 329 339 356 373 381 397 405 421 429 447 463 479 ">Difference (tick rate) of the 2 clocks</text>
   </g>
   <g xml:space="preserve" font-family="FreeSans" font-weight="normal" font-size="28.6" transform="translate(41.2933,551.533) rotate(-90,54.5,0)" font-style="normal">
    <text y="-0" fill="rgb(38,38,38)" x="0 18 24 38 53 60 70 86 94 ">Tick rate</text>
   </g>
   <g xml:space="preserve" font-family="FreeSans" font-weight="normal" font-size="28.6" transform="translate(717.982,738.84) rotate(-0,49.5,-29)" font-style="normal">
    <text y="-7" fill="rgb(38,38,38)" x="0 18 24 47 62 69 77 91 ">Time [s]</text>
   </g>
   <polyline fill="none" stroke-linejoin="round" stroke-width="4" stroke="#0071bc" stroke-linecap="butt" points="215.672,596.963 217.971,584.214 220.27,572.566 222.569,573.115 224.868,577.364 227.167,573.844 229.466,562.92 231.765,539.776 234.064,556.263 236.363,552.764 238.662,563.498 240.961,522.331 243.26,509.416 245.559,527.103 247.858,514.327 250.157,495.646 252.456,496.739 254.755,510.11 257.054,503.727 259.353,482.99 261.652,491.485 263.951,502.493 266.25,513.81 268.549,531.849 270.848,530.647 273.146,545.426 275.445,565.85 277.745,568.952 280.043,589.311 282.342,603.837 284.642,599.785 286.94,596.241 289.239,605.13 291.538,618.05 293.837,615.74 296.136,620.752 298.435,623.297 300.734,606.916 303.033,620.58 305.332,627.615 307.631,621.977 309.93,617.732 312.229,632.556 314.528,623.445 316.827,615.227 319.126,604.48 321.425,591.75 323.724,606.441 326.023,585.84 328.322,578.307 330.621,589.208 332.92,595.907 335.219,597.186 337.518,587.906 339.817,597.961 342.116,589.841 344.415,585.896 346.713,578.168 349.013,563.027 351.312,553.271 353.61,556.202 355.91,570.458 358.208,568.383 360.507,548.31 362.806,529.874 365.105,533.713 367.404,512.42 369.703,504.798 372.002,515.601 374.301,522.535 376.6,522.843 378.899,545.035 381.198,533.679 383.497,525.396 385.796,535.846 388.095,525.548 390.394,541.895 392.693,555.532 394.992,537.549 397.291,515.501 399.59,514.866 401.889,503.661 404.188,525.274 406.487,533.996 408.786,529.715 411.085,546.871 413.384,554.063 415.683,568.135 417.981,559.834 420.281,562.566 422.58,556.738 424.878,554.816 427.178,545.508 429.477,557.539 431.775,565.356 434.074,546.459 436.374,555.703 438.672,579.126 440.971,562.294 443.271,562.776 445.569,548.966 447.868,564.422 450.167,539.175 452.466,526.768 454.765,535.462 457.064,557.221 459.363,561.855 461.662,550.673 463.961,541.546 466.26,536.706 468.559,549.522 470.858,537.141 473.157,544.926 475.456,548.806 477.755,553.318 480.054,582.681 482.353,584.093 484.652,589.965 486.951,596.941 489.25,606.444 491.549,603.27 493.848,592.383 496.146,594.944 498.446,593.914 500.745,618.156 503.043,620.778 505.342,607.874 507.642,614.342 509.94,606.719 512.239,603.433 514.539,591.89 516.837,610.308 519.136,621.189 521.435,633.161 523.734,633.217 526.033,635.065 528.332,623.102 530.631,621.746 532.93,627.763 535.229,621.606 537.528,593.429 539.827,585.183 542.126,572.962 544.425,573.891 546.724,584.842 549.023,588.249 551.322,582.796 553.621,579.172 555.92,583.512 558.219,576.114 560.518,572.394 562.817,567.543 565.116,569.536 567.415,596.136 569.714,606.858 572.013,590.782 574.312,603.485 576.61,607.144 578.91,609.772 581.208,619.308 583.507,592.816 585.807,569.495 588.105,554.062 590.404,553.271 592.703,560.503 595.002,553.24 597.301,552 599.6,541.729 601.899,548.733 604.198,561.163 606.497,586.43 608.796,570.472 611.095,584.283 613.394,570.585 615.693,557.36 617.992,555.845 620.291,538.653 622.59,563.964 624.889,554.347 627.188,522.158 629.487,527.899 631.786,537.761 634.085,541.506 636.384,549.029 638.683,548.348 640.982,552.745 643.281,552.308 645.58,543.512 647.879,534.097 650.178,531.215 652.477,534.955 654.775,517.341 657.075,527.529 659.374,526.661 661.672,529.04 663.971,517.587 666.271,532.126 668.569,546.367 670.868,541.084 673.167,557.78 675.466,571.582 677.765,574.846 680.064,570.411 682.363,567.007 684.662,567.126 686.961,547.657 689.26,547.32 691.559,574.339 693.858,559.414 696.157,565.662 698.456,563.331 700.755,556.725 703.054,553.267 705.353,551.447 707.652,542.219 709.951,547.661 712.25,533.8 714.549,538.524 716.848,518.396 719.147,515.568 721.446,528.018 723.745,552.934 726.043,563.855 728.343,566.991 730.642,582.057 732.94,591.694 735.24,584.082 737.539,583.398 739.837,586.489 742.136,579.661 744.436,574.939 746.734,563.408 749.033,551.185 751.333,546.458 753.631,513.785 755.93,536.003 758.229,529.72 760.528,517.16 762.827,512.716 765.126,517.135 767.425,515.946 769.724,524.486 772.023,525.71 774.322,509.405 776.621,515.09 778.92,542.937 781.219,551.32 783.518,570.034 785.817,583.128 788.116,604.894 790.415,604.494 792.714,614.898 795.013,623.938 797.312,626.254 799.611,637.757 801.91,651.091 804.208,649.685 806.507,655.034 808.807,636.321 811.105,627.667 813.404,645.967 815.704,642.923 818.002,619.435 820.301,644.165 822.6,623.491 824.899,608.171 827.198,600.107 829.497,595.398 831.796,598.14 834.095,575.346 836.394,570.93 838.693,586.75 840.992,573.783 843.291,566.449 845.59,585.711 847.889,580.401 850.188,588.021 852.487,575.381 854.786,564.939 857.085,545.595 859.384,563.1 861.683,576.388 863.982,596.316 866.281,614.368 868.58,615.575 870.879,614.634 873.178,600.792 875.477,598.978 877.775,607.625 880.075,629.186 882.374,631.932 884.672,633.201 886.972,627.036 889.271,631.71 891.569,613.71 893.869,596.956 896.167,606.04 898.466,591.439 900.765,575.278 903.064,584.368 905.363,596.153 907.662,599.523 909.961,584.677 912.26,590.229 914.559,591.535 916.858,584.508 919.157,557.951 921.456,567.422 923.755,575.97 926.054,587.255 928.353,602.873 930.652,612.222 932.951,596.517 935.25,601.582 937.549,586.86 939.848,587.199 942.147,578.919 944.446,572.074 946.745,562.679 949.044,575.388 951.343,566.177 953.642,547.724 955.94,556.988 958.24,556.998 960.539,536.736 962.837,544.169 965.137,537.649 967.436,555.806 969.734,561.016 972.033,577.023 974.333,587.664 976.631,597.868 978.93,585.051 981.229,581.155 983.528,571.427 985.827,572.315 988.126,585.277 990.425,599.605 992.724,594.018 995.023,575.847 997.322,593.326 999.621,590.415 1001.92,590.304 1004.22,592.29 1006.52,591.59 1008.82,583.152 1011.12,573.918 1013.42,579.342 1015.71,582.434 1018.01,604.405 1020.31,599.451 1022.61,589.888 1024.91,606.219 1027.21,617.804 1029.51,614.936 1031.81,624.507 1034.11,640.201 1036.4,632.236 1038.7,617.657 1041,591.715 1043.3,602.592 1045.6,579.784 1047.9,590.782 1050.2,583.395 1052.5,589.42 1054.8,581.601 1057.1,589.702 1059.39,590.311 1061.69,589.769 1063.99,609.596 1066.29,616.842 1068.59,598.324 1070.89,576.608 1073.19,565.117 1075.49,587.096 1077.79,583.039 1080.08,597.761 1082.38,590 1084.68,601.383 1086.98,603.064 1089.28,610.02 1091.58,598.191 1093.88,604.69 1096.18,598.823 1098.48,607.601 1100.78,595.421 1103.07,578.707 1105.37,577.762 1107.67,578.049 1109.97,565.781 1112.27,586.654 1114.57,571.178 1116.87,584.478 1119.17,588.017 1121.47,578.319 1123.77,586.288 1126.06,587.869 1128.36,608.155 1130.66,592.528 1132.96,593.964 1135.26,608.162 1137.56,616.069 1139.86,616.27 1142.16,586.611 1144.46,565.562 1146.75,572.149 1149.05,571.069 1151.35,565.468 1153.65,560.919 1155.95,549.796 1158.25,546.936 1160.55,564.09 1162.85,556.873 1165.15,552.124 1167.45,560.721 1169.74,557.998 1172.04,542.751 1174.34,551.672 1176.64,531.198 1178.94,541.832 1181.24,548.961 1183.54,529.767 1185.84,504.255 1188.14,505.792 1190.44,492.051 1192.73,501.494 1195.03,496.034 1197.33,502.983 1199.63,505.543 1201.93,515.941 1204.23,504.22 1206.53,488.942 1208.83,496.482 1211.13,518.356 1213.43,523.833 1215.72,515.423 1218.02,515.182 1220.32,510.807 1222.62,518.539 1224.92,504.605 1227.22,498.177 1229.52,505.54 1231.82,502.278 1234.12,490.949 1236.42,479.895 1238.71,462.254 1241.01,476.664 1243.31,479.134 1245.61,473.584 1247.91,471.66 1250.21,477.21 1252.51,480.976 1254.81,460.304 1257.11,452.626 1259.4,466.009 1261.7,448.176 1264,448.887 1266.3,466.37 1268.6,471.794 1270.9,467.195 1273.2,475.605 1275.5,473.81 1277.8,465.908 1280.1,480.688 1282.39,466.925 1284.69,478.45 1286.99,489.872 1289.29,505.757 1291.59,511.945 1293.89,518.227 1296.19,529.58 1298.49,521.968 1300.79,522.582 1303.08,488.664 1305.38,483.544 1307.68,474.376 1309.98,498.042 1312.28,468.618 1314.58,498.132 1316.88,515.841 1319.18,504.863 1321.48,526.172 1323.78,543.089 1326.07,540.896 1328.37,535.042 1330.67,526.629 1332.97,538.18 1335.27,552.084 1337.57,525.727 1339.87,541.579 1342.17,537.65"/>
   <polyline fill="none" stroke-linejoin="round" stroke-width="4" stroke="#d85218" stroke-linecap="butt" points="215.672,564.287 217.971,571.725 220.27,575.315 222.569,572.088 224.868,572.634 227.167,574.218 229.466,573.3 231.765,565.862 234.064,551.288 236.363,542.996 238.662,544.225 240.961,547.608 243.26,533.077 245.559,515.308 247.858,508.162 250.157,500.732 252.456,488.599 254.755,484.318 257.054,491.18 259.353,495.361 261.652,490.2 263.951,488.565 266.25,498.343 268.549,515.709 270.848,533.782 273.146,545.555 275.445,557.541 277.745,572.306 280.043,583.981 282.342,598.727 284.642,613.652 286.94,619.007 289.239,613.228 291.538,609.361 293.837,611.743 296.136,617.129 298.435,623.21 300.734,624.526 303.033,618.072 305.332,615.451 307.631,617.435 309.93,617.949 312.229,618.116 314.528,624.722 316.827,628.359 319.126,621.779 321.425,606.386 323.724,590.153 326.023,583.998 328.322,576.784 330.621,571.639 332.92,575.952 335.219,585.964 337.518,595.469 339.817,600.254 342.116,598.563 344.415,592.809 346.713,584.587 349.013,576.449 351.312,563.358 353.61,549.281 355.91,543.749 358.208,550.759 360.507,558.62 362.806,550.511 365.105,534.701 367.404,525.25 369.703,512.359 372.002,500.21 374.301,502.396 376.6,512.099 378.899,523.553 381.198,538.68 383.497,543.024 385.796,538.502 388.095,536.116 390.394,533.837 392.693,540.81 394.992,549.155 397.291,546.537 399.59,531.458 401.889,511.774 404.188,497.257 406.487,503.166 408.786,518.411 411.085,532.46 413.384,549.761 415.683,565.863 417.981,577.677 420.281,577.426 422.58,572.692 424.878,563.501 427.178,554.471 429.477,548.704 431.775,549.494 434.074,553.109 436.374,551.265 438.672,556.879 440.971,572.991 443.271,577.201 445.569,571.896 447.868,562.683 450.167,555.924 452.466,542.805 454.765,527.572 457.064,522.975 459.363,535.787 461.662,552.219 463.961,555.948 466.26,548.685 468.559,542.636 470.858,543.074 473.157,539.351 475.456,538.723 477.755,543.028 480.054,555.107 482.353,577.935 484.652,595.781 486.951,603.45 489.25,607.039 491.549,611.038 493.848,611.744 496.146,604.745 498.446,597.451 500.745,596.19 503.043,607.051 505.342,619.229 507.642,622.466 509.94,622.375 512.239,616.719 514.539,601.554 516.837,590.343 519.136,596.981 521.435,614.378 523.734,632.614 526.033,644.279 528.332,648.034 530.631,639.081 532.93,629.526 535.229,624.055 537.528,615.012 539.827,596.208 542.126,575.125 544.425,556.74 546.724,549.151 549.023,561.084 551.322,578.95 553.621,589.476 555.92,585.708 558.219,579.617 560.518,574.244 562.817,569.323 565.116,565.386 567.415,570.677 569.714,587.205 572.013,605.139 574.312,612.664 576.61,615.636 578.91,615.894 581.208,616.302 583.507,620.177 585.807,608.599 588.105,581.111 590.404,552.542 592.703,533.133 595.002,529.584 597.301,534.528 599.6,539.528 601.899,540.653 604.198,543.525 606.497,559.063 608.796,580.828 611.095,592.74 613.394,596.315 615.693,583.62 617.992,564.361 620.291,545.788 622.59,537.133 624.889,542.238 627.188,542.77 629.487,530.708 631.786,521.714 634.085,523.431 636.384,531.804 638.683,543.978 640.982,551.893 643.281,556.174 645.58,557.48 647.879,548.22 650.178,534.543 652.477,528.126 654.775,525.767 657.075,517.683 659.374,517.414 661.672,522.239 663.971,525.81 666.271,523.454 668.569,529.353 670.868,543.333 673.167,551.817 675.466,561.199 677.765,574.25 680.064,583.931 682.363,583.667 684.662,579.251 686.961,571.281 689.26,551.878 691.559,541.838 693.858,549.484 696.157,557.364 698.456,563.764 700.755,567.603 703.054,562.765 705.353,553.842 707.652,545.388 709.951,538.548 712.25,537.271 714.549,536.151 716.848,531.679 719.147,518.689 721.446,510.088 723.745,518.491 726.043,539.08 728.343,560.122 730.642,575.166 732.94,588.458 735.24,599.997 737.539,600.329 739.837,592.284 742.136,585.276 744.436,578.512 746.734,569.714 749.033,558.587 751.333,546.383 753.631,533.1 755.93,516.965 758.229,514.798 760.528,519.582 762.827,521.864 765.126,518.317 767.425,513.633 769.724,513.743 772.023,519.995 774.322,524.596 776.621,519.576 778.92,517.746 781.219,528.82 783.518,549.495 785.817,574.299 788.116,598.974 790.415,618.936 792.714,627.742 795.013,634.25 797.312,639.802 799.611,641.765 801.91,644.281 804.208,651.936 806.507,657.411 808.807,658.708 811.105,646.406 813.404,633.526 815.704,633.889 818.002,635.248 820.301,629.924 822.6,629.463 824.899,623.373 827.198,609.046 829.497,594.72 831.796,589.274 834.095,589.127 836.394,580.543 838.693,571.834 840.992,573.456 843.291,571.348 845.59,568.057 847.889,572.826 850.188,579.68 852.487,582.482 854.786,577.945 857.085,566.23 859.384,550.939 861.683,551.225 863.982,567.858 866.281,593.106 868.58,617.004 870.879,630.015 873.178,630.458 875.477,620.974 877.775,609.007 880.075,601.793 882.374,611.25 884.672,627.541 886.972,641.113 889.271,647.119 891.569,645.021 893.869,628.713 896.167,603.304 898.466,589.636 900.765,579.161 903.064,569.217 905.363,571.652 907.662,580.75 909.961,590.833 912.26,592.43 914.559,590.66 916.858,590.924 919.157,585.942 921.456,570.188 923.755,561.102 926.054,565.345 928.353,581.229 930.652,599.843 932.951,613.194 935.25,614.144 937.549,608.629 939.848,595.711 942.147,579.369 944.446,566.404 946.745,559.483 949.044,560.341 951.343,566.152 953.642,565.628 955.94,560.363 958.24,556.536 960.539,550.725 962.837,539.444 965.137,535.256 967.436,536.922 969.734,545.731 972.033,559.561 974.333,577.779 976.631,596.779 978.93,607.352 981.229,603.305 983.528,591.391 985.827,576.84 988.126,568.878 990.425,575.323 992.724,588.574 995.023,593.689 997.322,589.048 999.621,590.267 1001.92,591.287 1004.22,591.328 1006.52,591.585 1008.82,593.312 1011.12,588.514 1013.42,578.843 1015.71,576.593 1018.01,583.498 1020.31,598.317 1022.61,606.092 1024.91,603.617 1027.21,606.508 1029.51,613.504 1031.81,619.246 1034.11,628.868 1036.4,640.614 1038.7,641.084 1041,625.977 1043.3,600.801 1045.6,585.299 1047.9,576.364 1050.2,574.896 1052.5,573.915 1054.8,576.01 1057.1,581.606 1059.39,587.517 1061.69,591.542 1063.99,595.303 1066.29,609.06 1068.59,619.803 1070.89,611.974 1073.19,588.656 1075.49,566.098 1077.79,560.729 1080.08,569.596 1082.38,585.704 1084.68,596.504 1086.98,606.168 1089.28,612.924 1091.58,617.695 1093.88,613.756 1096.18,607.555 1098.48,601.597 1100.78,601.44 1103.07,595.21 1105.37,582.451 1107.67,573.767 1109.97,569.461 1112.27,568.162 1114.57,573.178 1116.87,574.763 1119.17,578.138 1121.47,582.144 1123.77,584.853 1126.06,587.699 1128.36,591.907 1130.66,601.257 1132.96,603.006 1135.26,603.784 1137.56,608.246 1139.86,615.498 1142.16,614.327 1144.46,594.928 1146.75,569.996 1149.05,556.256 1151.35,552.768 1153.65,552.91 1155.95,550.7 1158.25,542.847 1160.55,539.554 1162.85,547.987 1165.15,556.45 1167.45,560.804 1169.74,563.793 1172.04,562.815 1174.34,556.146 1176.64,547.408 1178.94,535.021 1181.24,531.362 1183.54,533.347 1185.84,527.992 1188.14,513.207 1190.44,496.111 1192.73,482.318 1195.03,482.759 1197.33,487.935 1199.63,497.822 1201.93,510.519 1204.23,519.345 1206.53,515.432 1208.83,502.748 1211.13,497.288 1213.43,508.268 1215.72,523.871 1218.02,529.533 1220.32,525.613 1222.62,517.918 1224.92,513.753 1227.22,506.919 1229.52,500.871 1231.82,499.174 1234.12,497.103 1236.42,489.651 1238.71,475.339 1241.01,461.911 1243.31,463.928 1245.61,470.06 1247.91,473.231 1250.21,475.917 1252.51,477.98 1254.81,480.18 1257.11,471.368 1259.4,459.227 1261.7,454.788 1264,451.403 1266.3,449.386 1268.6,455.886 1270.9,467.122 1273.2,475.819 1275.5,480.129 1277.8,480.189 1280.1,477.961 1282.39,477.329 1284.69,476.288 1286.99,477.24 1289.29,485.848 1291.59,504.816 1293.89,521.233 1296.19,532.911 1298.49,540.018 1300.79,539.283 1303.08,529.209 1305.38,503.75 1307.68,476.294 1309.98,460.262 1312.28,466.039 1314.58,472.179 1316.88,487.083 1319.18,505.681 1321.48,519.207 1323.78,534.62 1326.07,550.82 1328.37,558.951 1330.67,553.538 1332.97,540.947 1335.27,535.012 1337.57,536.143 1339.87,533.681 1342.17,536.052"/>
  </g>
  <clipPath id="cp001483748">
   <polygon points="0,748 1483,748 1483,0 0,0"/>
  </clipPath>
  <g clip-path="url(#cp001483748)">
   <polygon fill="#ffffff" shape-rendering="crispEdges" points="1126.17,487.199 1337.17,487.199 1337.17,441.698 1126.17,441.698"/>
   <polyline fill="none" stroke-linejoin="miter" stroke-width="0.5" stroke="#262626" stroke-dasharray="16,0" stroke-linecap="square" points="1126.17,487.199 1337.17,487.199"/>
   <polyline fill="none" stroke-linejoin="miter" stroke-width="0.5" stroke="#262626" stroke-dasharray="16,0" stroke-linecap="square" points="1126.17,441.698 1337.17,441.698"/>
   <polyline fill="none" stroke-linejoin="miter" stroke-width="0.5" stroke="#262626" stroke-dasharray="16,0" stroke-linecap="square" points="1126.17,487.199 1126.17,441.698"/>
   <polyline fill="none" stroke-linejoin="miter" stroke-width="0.5" stroke="#262626" stroke-dasharray="16,0" stroke-linecap="square" points="1337.17,487.199 1337.17,441.698"/>
   <polyline fill="none" stroke-linejoin="round" stroke-width="4" stroke="#0071bc" stroke-linecap="butt" points="1128.67,453.699 1141.17,453.699"/>
   <g xml:space="preserve" font-family="FreeSans" font-weight="normal" font-size="23.4" transform="translate(1143.67,463.199) rotate(-0,-0,-9.5)" font-style="normal">
    <text y="-1" fill="rgb(0,0,0)" x="0 15 23 36 48 54 61 66 78 90 96 104 117 124 ">True tick rate</text>
   </g>
   <polyline fill="none" stroke-linejoin="round" stroke-width="4" stroke="#d85218" stroke-linecap="butt" points="1128.67,475.199 1141.17,475.199"/>
   <g xml:space="preserve" font-family="FreeSans" font-weight="normal" font-size="23.4" transform="translate(1143.67,484.699) rotate(-0,-0,-9.5)" font-style="normal">
    <text y="-1" fill="rgb(0,0,0)" x="0 15 27 34 39 58 71 78 90 103 109 116 121 133 145 151 159 172 179 ">Estimated tick rate</text>
   </g>
  </g>
 </g>
</svg>
